<svg id="Camada_1" data-name="Camada 1" xmlns="http://www.w3.org/2000/svg" xmlns:xlink="http://www.w3.org/1999/xlink" viewBox="0 0 1137.69 854.44"><defs><style>.cls-1,.cls-7{fill:#007bff;}.cls-1,.cls-14,.cls-6{opacity:0.1;}.cls-1,.cls-19,.cls-29,.cls-6{isolation:isolate;}.cls-2{fill:url(#Gradiente_sem_nome);}.cls-3{fill:#d38884;}.cls-4{fill:#444053;}.cls-5{fill:#b07473;}.cls-8{fill:#67647e;}.cls-9{fill:#585268;}.cls-10{fill:#e1e7ef;}.cls-11{fill:url(#Gradiente_sem_nome_2);}.cls-12{fill:#a27772;}.cls-13{fill:#cc818c;}.cls-15{fill:#f6f8fb;}.cls-16{fill:url(#Gradiente_sem_nome_3);}.cls-17{fill:#65617d;}.cls-18{fill:#fbbebe;}.cls-19,.cls-26{opacity:0.05;}.cls-20{fill:#7c5c5c;}.cls-21{fill:url(#Gradiente_sem_nome_4);}.cls-22{fill:#fdc2cc;}.cls-23{fill:#d39999;}.cls-24{fill:#7e5659;}.cls-25{fill:#865a61;}.cls-27{fill:none;stroke:#3f2b3b;stroke-miterlimit:10;}.cls-28{fill:#a8a8a8;}.cls-29{opacity:0.2;}</style><linearGradient id="Gradiente_sem_nome" x1="512.79" y1="129.55" x2="512.79" y2="720.69" gradientTransform="matrix(1, 0, 0, -1, -31.16, 839.86)" gradientUnits="userSpaceOnUse"><stop offset="0" stop-color="gray" stop-opacity="0.25"/><stop offset="0.54" stop-color="gray" stop-opacity="0.12"/><stop offset="1" stop-color="gray" stop-opacity="0.1"/></linearGradient><linearGradient id="Gradiente_sem_nome_2" x1="703.44" y1="78.08" x2="703.44" y2="688.88" xlink:href="#Gradiente_sem_nome"/><linearGradient id="Gradiente_sem_nome_3" x1="876.01" y1="32.54" x2="876.01" y2="620.16" xlink:href="#Gradiente_sem_nome"/><linearGradient id="Gradiente_sem_nome_4" x1="253.78" y1="41.32" x2="253.78" y2="630.1" gradientTransform="translate(571.71 839.86) rotate(180)" xlink:href="#Gradiente_sem_nome"/></defs><title>about-img1</title><path class="cls-1" d="M12.28,406.51c18,70.15,56.11,130.79,116.34,160.18,125.22,61.09,407.45,29.58,618.12-6.58,109-18.71,204.74-70.3,274.33-143Z" transform="translate(0.01 0)"/><path class="cls-1" d="M1117.05,76.32H1001.46c-5.5,0-10-4.1-10-9.11s4.49-9.11,10-9.11h20c-5.5,0-10-4.1-10-9.11s4.49-9.1,10-9.1h-14.27c-5.5,0-10-4.1-10-9.11s4.49-9.11,10-9.11h60.33c-13.39-5.68-29-9.71-47.06-11.82C856-9.42,797.21,3.32,776.46,16.43a242,242,0,0,1-84.55,33.79c-101.5,19.09-291.32,42.06-463.37-7.36C143,18.31,79.48,59.86,41.38,129.17H1137.12c-1.43-20.16-5.71-38.78-13.57-55.07A10.5,10.5,0,0,1,1117.05,76.32Z" transform="translate(0.01 0)"/><path class="cls-1" d="M2.47,260.09A423.86,423.86,0,0,0,7,382.48l1014.88,33.84a433,433,0,0,0,70.51-98ZM403.84,347.4h-20c5.49,0,10,4.1,10,9.11s-4.5,9.1-10,9.1H268.3c-5.49,0-10-4.09-10-9.1s4.5-9.11,10-9.11h20c-5.49,0-10-4.1-10-9.11s4.5-9.11,10-9.11H274c-5.49,0-10-4.09-10-9.1s4.5-9.11,10-9.11H389.6c5.5,0,10,4.1,10,9.11s-4.49,9.1-10,9.1h14.24c5.5,0,10,4.1,10,9.11S409.37,347.4,403.84,347.4Z" transform="translate(0.01 0)"/><path class="cls-1" d="M1137.17,129.8l-1108,24.57C15.67,186,6.74,221.67,2.62,258.69H1117.75a398.76,398.76,0,0,0,16.1-66.49C1137.17,170.44,1138.5,149.4,1137.17,129.8ZM227.59,210.31h-20c5.49,0,10,4.1,10,9.11s-4.5,9.11-10,9.11H92c-5.49,0-10-4.1-10-9.11s4.5-9.11,10-9.11h20c-5.49,0-10-4.09-10-9.1s4.5-9.11,10-9.11H97.72c-5.49,0-10-4.1-10-9.11s4.5-9.11,10-9.11H213.31c5.5,0,10,4.1,10,9.11s-4.49,9.11-10,9.11h14.28c5.49,0,10,4.1,10,9.11S233.08,210.31,227.59,210.31Z" transform="translate(0.01 0)"/><ellipse class="cls-1" cx="664.35" cy="749.94" rx="75.23" ry="16.89"/><ellipse class="cls-1" cx="839.16" cy="803.58" rx="135.72" ry="11.14"/><ellipse class="cls-1" cx="294.23" cy="786.69" rx="135.72" ry="16.89"/><ellipse class="cls-1" cx="501.16" cy="702.14" rx="102.12" ry="16.89"/><path class="cls-2" d="M577.46,300.33c-2.16-14.54-15.37-48.47-15.37-48.47h0q-.35-1.5-.78-3c-9.37-32.2-22.34-35-22.34-35l-46.46-10a3.55,3.55,0,0,1,1,.93,5.84,5.84,0,0,0-.73.11,18.2,18.2,0,0,1-4.07-8.8c-.09-.48-.17-1-.23-1.49a32.68,32.68,0,0,0,.59-46.21,32.1,32.1,0,0,0-3.25-2.92c-.49-.38-1-.75-1.49-1.1,2.19-2.33,2.26-5.57.62-8.81-3.66-7.6-11.62-12.41-19.8-14.76-6.25-1.79-13-2.37-19.22-.41-3.53,1.12-6.75,3-10.06,4.67-6.17,3.08-13,5.52-17.61,10.59-1.08,1.18-2.08,2.69-1.76,4.25.24,1.16,1.16,2.06,1.75,3.09,1.33,2.31,1,5.22.09,7.74s-2.24,4.86-2.87,7.44-.39,5.62,1.55,7.47a31.77,31.77,0,0,0,2.9,2,15.21,15.21,0,0,1,2.77,3.11q2.76,3.7,5.5,7.43a77.19,77.19,0,0,1,6.89,10.47c1.37,2.7,2.43,5.58,4.26,8a11.89,11.89,0,0,0,1.83,1.92l-.54-.21a8.31,8.31,0,0,0,6.11,2.49H447a1.66,1.66,0,0,0,1.12-.46v1c.11,3.57.09,7.37-.16,10.94l-.43-.22a3.75,3.75,0,0,0-4,.42l-42.77,34.32s-9.3,12.72-8,34.68l-7.5,32.93s-9.37,27.94-2.16,47.89,11.39,31.36,11.39,31.36,2.88,22.67,7.21,24.52,6.2,2.85,6.2,2.85l.86,5.42h0s.29.53.8,1.42c3.15,5.48,14.82,24.82,21.6,22.75a87.14,87.14,0,0,1,1.1,15.89L439,511.62s4.68,12.25,4.39,18.67,5.46,15.57,5.46,15.57A29.75,29.75,0,0,0,446,566.81c2.74,12,6.2,67.28,6.2,67.28l5,13.4L457,663.2a15,15,0,0,1-3.1,7c-3.24,3.52-3,7.59-10.81,12.4s-12.76,6.63-12.76,13a16.84,16.84,0,0,1-.24,2.65c-.72,4.68-2.12,7.22,12.24,8.58,16.87,1.6,28.12-9.4,28.12-9.4s2.48-4.5,14.16-6.32c0,0,4-.21,4.21-3.74.08-1.22.06-3.55,0-6.12-.19-4.89-.66-10.6-1.28-10.88-.78-.35-2.14-5.27-2.61-7h3.25s3-22.67,0-37.35-.29-25.09-.29-25.09l-.58-38.77s-4-4.28-.86-11.84,0-44.9,0-44.9,1.16-13.4,4.47-16.54.16-19.63,0-20.49l5.9,19.79s2.59,39.34,8.08,46.46l1.58,17.82s11.24,16.4,9.08,25.23,2.31,40.77,2.31,40.77v32.65s-5,13.11,2,17.82l3-.12c-1,.93-1.77,2.33-2.94,3.54-1.35,1.39-2.12,6.68-2.55,11.23-.36,3.85-.48,7.16-.48,7.16s3,4.8,8.65,5.13,24.27,14.49,24.27,14.49,18.39,0,23.15-1l.28-.07a6.25,6.25,0,0,0,3.59-2.93,7.52,7.52,0,0,0,.86-5.39c-.59-2.81-2.82-5.89-7.76-8.51-12.29-6.48-14.12-12.55-14.12-12.55l-8.07-12.11h1.15s-.71-12.83,8.07-27.23l-.57-63.43s3.6-21.81-2.59-33.65c0,0-.51-12.54,3.63-16.39S552,484.29,552,484.29s-2-20.89-4.35-40h0c9.73,9.23,19.82-24,21.52-29.91h.25l-.11-.43c.07-.28.11-.42.11-.42h0s-2.16-7.68-.58-6.12,5.48-4.28,5.48-4.28-.58-31.79,6.2-47.81S577.46,300.33,577.46,300.33Zm-29,20.23,0-.09c1,19.41-.19,60.83-.19,60.83s-1.34,5.31-2.77,11.56l-1-39.35h0l-1-37.07ZM424.35,307.18s4.9,61.29,0,70.13c-1.39,2.52-2.56,7-3.53,12.11-1.62-4.25-5.05-14.23-3.82-19.52,1.59-6.84-3.17-24.81-3.17-25.23s-.43-10,3-17.32S418,316.86,418,316.86,420.89,304.86,424.35,307.18Z" transform="translate(0.01 0)"/><path class="cls-3" d="M436.29,445.22C432,464,415,435.61,411.17,428.8c-.5-.89-.78-1.41-.78-1.41l1.84-8.63,9.73-4a27.87,27.87,0,0,1,4.36,2.84C431.65,421.79,439.58,430.68,436.29,445.22Z" transform="translate(0.01 0)"/><path class="cls-3" d="M568,414.51a1.31,1.31,0,0,1-.11.42,2.13,2.13,0,0,1-.13.45c-1.67,5.86-11.57,38.85-21.13,29.69-10.46-10-5.38-33.12-5.38-33.12h.07l22-2.25,4.36,4.48h0Z" transform="translate(0.01 0)"/><path class="cls-4" d="M555.29,576.86l.56,63c-8.63,14.3-7.92,27-7.92,27L519.49,668c-6.94-4.67-2-17.68-2-17.68V617.86s-4.39-31.69-2.27-40.47-8.91-25-8.91-25l-1.56-17.69c-5.38-7.07-7.93-46.12-7.93-46.12l-5.77-19.72c.16.85,3.16,17.31,0,20.34s-4.39,16.41-4.39,16.41,3.11,37.08,0,44.57.84,11.75.84,11.75l.57,38.49s-2.69,10.33.28,24.9,0,37.08,0,37.08H457.84l.14-15.71L453,633.39s-3.4-54.9-6.09-66.79a29.82,29.82,0,0,1,2.82-20.8s-5.65-9-5.37-15.42S440,511.86,440,511.86l-6.58-44.71a87,87,0,0,0-3.26-25.47c-3.82-12.74-9.48-29.44-9.48-29.44l6.39.57,32.24,2.87s78.39-5.27,81.9-.89a14.75,14.75,0,0,1,1.48,4.57c3.52,15.81,8.17,65.34,8.17,65.34s9.48,38.63,5.41,42.45-3.57,16.26-3.57,16.26C558.84,555.16,555.29,576.86,555.29,576.86Z" transform="translate(0.01 0)"/><path class="cls-5" d="M489,686.29c-.22,3.51-4.13,3.72-4.13,3.72-11.46,1.8-13.9,6.26-13.9,6.26s-11,10.93-27.59,9.34c-14.1-1.36-12.73-3.87-12-8.52a17.71,17.71,0,0,0,.23-2.62c0-6.37,4.88-8.18,12.52-13s7.43-8.81,10.61-12.31,3.51-10.29,3.51-10.29c3.6-6.27,12.73,1,12.73,1,.43,2.22,14,1.91,14,1.91s1.8,7.22,2.73,7.64c.61.28,1.07,5.94,1.25,10.8C489.08,682.77,489.1,685.08,489,686.29Z" transform="translate(0.01 0)"/><path class="cls-6" d="M489,686.29c-.22,3.51-4.13,3.72-4.13,3.72-11.46,1.8-13.9,6.26-13.9,6.26s-11,10.93-27.59,9.34c-14.1-1.36-12.73-3.87-12-8.52,6.3,1.56,18.34,3.74,25.37-.08,9.77-5.3,16.78-9,16.78-9L489,680.24C489.08,682.77,489.1,685.08,489,686.29Z" transform="translate(0.01 0)"/><path class="cls-5" d="M575.39,705.18a6.09,6.09,0,0,1-3.52,2.91l-.27.07c-4.67,1-22.72,1-22.72,1s-18.25-14.11-23.77-14.43-8.49-5.1-8.49-5.1.11-3.28.46-7.1c.43-4.52,1.18-9.77,2.51-11.15,2.44-2.55,3-6,8.49-3.82,0,0,7.84-13.82,17.08-3.14l9.56,14.5s1.8,6,13.91,12.51c4.84,2.6,7,5.66,7.61,8.45A7.44,7.44,0,0,1,575.39,705.18Z" transform="translate(0.01 0)"/><path class="cls-6" d="M575.39,705.18c-1.08.91-2.27,1.89-3.52,2.91l-.27.07c-4.67,1-22.72,1-22.72,1s-18.25-14.11-23.77-14.43-8.49-5.1-8.49-5.1.11-3.28.46-7.1c5.62,1.68,14.13,4.65,16.41,7.85,3.5,4.87,14.13,11.67,14.13,11.67s19.82-1.91,28.62-2.17A7.44,7.44,0,0,1,575.39,705.18Z" transform="translate(0.01 0)"/><path class="cls-3" d="M498.26,211.39,472.16,239s-31.63-2.33-26.11-11.67c2.81-4.76,3.25-14.72,3-23.38-.23-8.35-1.09-15.46-1.09-15.46s44.36-22.08,41-1.49a34.1,34.1,0,0,0-.12,11.75C490.73,209.13,498.26,211.39,498.26,211.39Z" transform="translate(0.01 0)"/><path class="cls-6" d="M488.92,187a34.1,34.1,0,0,0-.12,11.75,32.57,32.57,0,0,1-23.22,9.69c-6,0-12.49-4.93-17.34-7.78-.23-8.36-.28-12.17-.28-12.17S492.32,166.39,488.92,187Z" transform="translate(0.01 0)"/><path class="cls-3" d="M498.26,174A32.69,32.69,0,1,1,486,148.49,32.68,32.68,0,0,1,498.26,174Z" transform="translate(0.01 0)"/><path class="cls-6" d="M542.73,419.36c-8.14,19.37-60.5,19.77-60.5,19.77V418l-3.17-.21c1.37,6.05-1.92,20.8-1.92,20.8-41.38,5.84-51.47-17.74-51.47-17.74l1.44-8.07,32.24,2.87s78.39-5.27,81.9-.89A14.87,14.87,0,0,1,542.73,419.36Z" transform="translate(0.01 0)"/><path class="cls-7" d="M482.23,436.58V415.46l-3.17-.2c1.37,6-1.92,20.8-1.92,20.8-31.14,4.39-44.56-7.87-49.29-14.21a19.31,19.31,0,0,1-2.18-3.52l12.64-71.1,3-104.64,4.53-18.36,1.05-8.81v-.1H447l3.22,1.38L469.49,225l21.89-16.53.32-.23,1.09-.83,1.81,1.45,4.5,3.61,14.43,93.19s25,71.75,29.68,100.71c.19,1.16.34,2.24.46,3.25C546.76,436.09,482.23,436.58,482.23,436.58Z" transform="translate(0.01 0)"/><circle class="cls-8" cx="471.84" cy="227.09" r="1.86"/><circle class="cls-8" cx="472.7" cy="244.07" r="1.86"/><circle class="cls-8" cx="474.56" cy="271.56" r="1.86"/><circle class="cls-8" cx="477.63" cy="301.17" r="1.86"/><circle class="cls-8" cx="479.49" cy="328.97" r="1.86"/><circle class="cls-8" cx="481.35" cy="358.58" r="1.86"/><circle class="cls-8" cx="480.61" cy="387.87" r="1.86"/><path class="cls-6" d="M448.13,357.57s-2.08,27.23-5.9,35.15-5.52,30.14-5.52,30.14l-8.87-1a19.31,19.31,0,0,1-2.18-3.52l12.64-71.1,3-104.64,4.54-18.37,1.05-8.81.12,0a3.58,3.58,0,0,1,3.16,0l.42.22q-.19.54-.36,1.11c-3.46,10.83-4.75,30.79-4.75,30.79s5,36.51,5.52,53.49S448.13,357.57,448.13,357.57Z" transform="translate(0.01 0)"/><path class="cls-6" d="M426.32,417.63a5.13,5.13,0,0,1-.34.66c-3.44,5.81-12.16,9.5-14.81,10.51-.5-.89-.78-1.41-.78-1.41l1.84-8.63,9.73-4A27.35,27.35,0,0,1,426.32,417.63Z" transform="translate(0.01 0)"/><path class="cls-8" d="M402.75,278.67l-8.07,4.81-7.35,32.69s-9.2,27.73-2.13,47.54,11.18,31.15,11.18,31.15,2.83,22.5,7.08,24.34,6.08,2.83,6.08,2.83l.85,5.38s11.52-3.91,15.59-10.8-3-24-3-24-6.08-14.58-4.52-21.37-3.12-24.62-3.12-25-.42-9.91,3-17.2,1.14-10.4,1.14-10.4l-2.13-20.8Z" transform="translate(0.01 0)"/><path class="cls-6" d="M543.4,413.24s-21.37,8.06-28.16,1-6.09-40.19-6.09-40.19-6.5-61.13-10.61-71.17-2-82.5-2-82.5-2.76-9.37-5.17-11.82a2.24,2.24,0,0,0-.51-.41l.83.18,2.9.62,4.5,3.61,14.43,93.19s25,71.75,29.68,100.71Z" transform="translate(0.01 0)"/><path class="cls-6" d="M568,415.36h-.24c-2.69.35-26.43,3.22-26.53-1.72a16.32,16.32,0,0,1,.09-1.71l22-2.25,4.36,4.48h0c.08.29.14.54.2.74Z" transform="translate(0.01 0)"/><path class="cls-8" d="M545.24,245.93l15.6,8.14s13,33.66,15.08,48.09c0,0,9.63,38.66,3,54.56s-6.08,47.46-6.08,47.46-3.82,5.8-5.38,4.25.57,6.08.57,6.08-26.67,3.54-26.78-1.7,6.12-30.28,6.12-30.28,1.7-59.57-.71-68.91S545.24,245.93,545.24,245.93Z" transform="translate(0.01 0)"/><path class="cls-6" d="M498.69,309.38s-8.78,21.5-11.61,22.92.57,7.07.57,7.07S503.64,317,498.69,309.38Z" transform="translate(0.01 0)"/><path class="cls-6" d="M493.45,234c.1-.41-10.47,10.37-13.3,12S490.48,245.86,493.45,234Z" transform="translate(0.01 0)"/><path class="cls-6" d="M464,307.68s-16.13,10.43-14,14.56S464,307.68,464,307.68Z" transform="translate(0.01 0)"/><path class="cls-6" d="M493.31,459.93s13.73,8.83,35.09,11Z" transform="translate(0.01 0)"/><path class="cls-6" d="M460.34,481.16s12.73,16,18.54,16.41S460.34,481.16,460.34,481.16Z" transform="translate(0.01 0)"/><path class="cls-6" d="M478.17,543.86c-.57.28-7.22,14.43-14,14.86S478.17,543.86,478.17,543.86Z" transform="translate(0.01 0)"/><path class="cls-6" d="M537.17,574.86s12.62-2.83,15.43,6.22C552.6,581.05,551.75,578.22,537.17,574.86Z" transform="translate(0.01 0)"/><path class="cls-6" d="M528.68,626.62s15.29-3.12,18.54,1.13S528.68,626.62,528.68,626.62Z" transform="translate(0.01 0)"/><path class="cls-6" d="M485.43,633.86c0,.14-15.56,3.12-15,5.1s16.6,1.7,17.17-1.42a3,3,0,0,0-2.13-3.67Z" transform="translate(0.01 0)"/><path class="cls-6" d="M523.59,647.28s25.57-3.12,24,2.26S523.59,647.28,523.59,647.28Z" transform="translate(0.01 0)"/><path class="cls-6" d="M389.73,332.3c.14.42,16.84,2.69,19.1,8.07,0,0-16.41-7.65-19-7.65" transform="translate(0.01 0)"/><path class="cls-6" d="M413.22,376s-13.87,4.39-12.88,11S398.93,384,413.22,376Z" transform="translate(0.01 0)"/><path class="cls-6" d="M406.76,409.7s5.05-6.93,9.86-5.66S406.76,409.7,406.76,409.7Z" transform="translate(0.01 0)"/><path class="cls-6" d="M486,148.49a8,8,0,0,1-1.62,1.21c-4,2.33-5.1,5.92-7,10.06-1.77,3.79-3.72,7.8-7.29,10-4.61,2.78-10.68,1.76-15.47,4.18a12,12,0,0,0-6.4,11.83,33.85,33.85,0,0,0,1.36,5.42A38.65,38.65,0,0,1,451,202.91a2,2,0,0,1,0,.35,32.68,32.68,0,1,1,35-54.77Z" transform="translate(0.01 0)"/><path class="cls-9" d="M485.11,138.65c-3.59-7.54-11.4-12.32-19.43-14.65-6.13-1.77-12.79-2.35-18.87-.4-3.47,1.1-6.62,3-9.87,4.63-6.06,3.06-12.72,5.48-17.28,10.51-1.07,1.17-2,2.67-1.73,4.22.23,1.15,1.13,2,1.71,3.06,1.31,2.3,1,5.19.09,7.69s-2.2,4.82-2.82,7.39-.38,5.58,1.52,7.41a27.71,27.71,0,0,0,2.86,2,15,15,0,0,1,2.71,3.08l5.4,7.38a74.58,74.58,0,0,1,6.76,10.39c1.34,2.68,2.38,5.54,4.18,7.93s4.6,4.31,7.58,4.05a1.48,1.48,0,0,0,1.2-.57,1.6,1.6,0,0,0,.15-.75,38.4,38.4,0,0,0-1.43-11.73,33.85,33.85,0,0,1-1.36-5.42,12.05,12.05,0,0,1,6.4-11.83c4.8-2.42,10.87-1.4,15.47-4.17,3.58-2.16,5.53-6.17,7.29-10,1.93-4.14,3-7.73,7-10.06S487.1,142.62,485.11,138.65Z" transform="translate(0.01 0)"/><path class="cls-6" d="M470.47,672.92s5,6.37,3.7,10S470.47,672.92,470.47,672.92Z" transform="translate(0.01 0)"/><path class="cls-6" d="M538.12,688.86s1.11-8.54,5.56-8.62,4.67-.46,8.07.85,6.59,3.34,5.57,3.64-5.85-4.88-10.81-2.23A35.65,35.65,0,0,0,538.12,688.86Z" transform="translate(0.01 0)"/><path class="cls-6" d="M455.55,235.74l14-9.81s-20.48-12.1-22.92-10.4-4.12,17-4.12,17Z" transform="translate(0.01 0)"/><path class="cls-10" d="M455.49,235.11l14-10S449,213,446.57,214.71s-4.12,17.84-4.12,17.84Z" transform="translate(0.01 0)"/><path class="cls-7" d="M455.49,235.11l14-10S449,213,446.57,214.71s-4.12,17.84-4.12,17.84Z" transform="translate(0.01 0)"/><path class="cls-8" d="M448.89,214.79l-.42-.21a3.63,3.63,0,0,0-3.93.41l-42,34.07s-9.13,12.63-7.86,34.42l24.77,35.09s2.83-11.88,6.22-9.62c0,0,4.81,60.85,0,69.62s-6.93,41.6-6.93,41.6L435,422s1.7-22.22,5.52-30.14,5.9-35.15,5.9-35.15,3.44-39.56,2.87-56.54-5.52-53.49-5.52-53.49S445.17,225.29,448.89,214.79Z" transform="translate(0.01 0)"/><path class="cls-6" d="M490.73,229.54l-17.45-6.46s22.22-24.34,25-10.84Z" transform="translate(0.01 0)"/><path class="cls-10" d="M490.73,228.69l-17.45-6.46s22.22-24.34,25-10.84Z" transform="translate(0.01 0)"/><path class="cls-7" d="M490.73,228.69l-17.45-6.46s22.22-24.34,25-10.84Z" transform="translate(0.01 0)"/><path class="cls-6" d="M490.16,208a1,1,0,0,1,.72.16Z" transform="translate(0.01 0)"/><path class="cls-8" d="M491.84,206.29l46.3,10s12.74,2.83,21.94,34.81-12.6,71.16-12.6,71.16l-4.81-4.09,2.41,93.39s-21.37,8.06-28.16,1-6.08-40.22-6.08-40.22-6.51-61.12-10.62-71.17-2-82.49-2-82.49S494.44,205.73,491.84,206.29Z" transform="translate(0.01 0)"/><path class="cls-6" d="M534.2,265.8c-.65.6-1.41,28.86,1.42,50.37a273.82,273.82,0,0,0,8,38.77l-4.2-86.17S536.18,264,534.2,265.8Z" transform="translate(0.01 0)"/><path class="cls-6" d="M528.54,241.46c1.13.71,6.09,12.45,3.82,17.26S528.54,241.46,528.54,241.46Z" transform="translate(0.01 0)"/><path class="cls-6" d="M484.84,138.65A25.52,25.52,0,0,0,474.66,128a24.15,24.15,0,0,1,7.63,9c2,4,1.41,8-2.48,10.19s-5.1,5.92-7,10.06c-1.77,3.79-3.72,7.8-7.3,10-4.6,2.78-10.67,1.75-15.47,4.17a12.07,12.07,0,0,0-6.4,11.84,34.57,34.57,0,0,0,1.37,5.41,38.65,38.65,0,0,1,1.46,11.77,1.61,1.61,0,0,1-.16.75,1.42,1.42,0,0,1-1.19.57,6.89,6.89,0,0,1-3.49-.65,8.1,8.1,0,0,0,6,2.35,1.19,1.19,0,0,0,1.34-1,1.71,1.71,0,0,0,0-.32,38.37,38.37,0,0,0-1.45-11.77,32.6,32.6,0,0,1-1.37-5.42,12.05,12.05,0,0,1,6.4-11.83c4.8-2.42,10.87-1.4,15.47-4.17,3.58-2.16,5.53-6.17,7.29-10,1.93-4.14,3-7.73,7-10.06S486.84,142.62,484.84,138.65Z" transform="translate(0.01 0)"/><path class="cls-11" d="M769.71,264.23c-13.78-.27-25.94-10-32.83-21.89a22,22,0,0,1-3.32-9.37,11.28,11.28,0,0,1,.38-2.24,22.81,22.81,0,0,0,1-3.43,6.55,6.55,0,0,0,0-1.4v-.08c.33-2.53-1.16-5-3-6.73s-4.15-3-6.07-4.72c-5.92-5.2-7.72-13.54-7.83-21.48v-.42c.07-3.4.34-6.81.31-10.21a42.93,42.93,0,0,0-.25-5.78c-.57-4.81-2.4-9.71-6.18-12.78-9.86-8-26.44.33-36.65-7.23-2.48-1.85-4.49-4.58-7.5-5.3-2.27-.55-4.63.19-6.85.93-7.52,2.48-15.91,5.74-18.85,13-1.68,4.17-1.21,8.93-2.75,13.15-1,2.83-2.91,5.26-4.3,7.94a12.39,12.39,0,0,0-1.6,6.63,7.46,7.46,0,0,0,.49,3.53,9,9,0,0,0,2.45,3.51,11.33,11.33,0,0,1-1.46,2.34c-1.92,2.35-4.87,4-6.87,6.34-3.7,4.29-3.56,10.12-1.74,15.16s5.11,9.63,7.38,14.54c1,2.13,1.76,4.51.75,6.63-.71,1.47-2.18,2.59-3.32,3.86a12.09,12.09,0,0,0-3,6.7c-22.51,5.14-22.53,23.23-22.53,23.23h0l-12.16,30.58s-1.95,5.15-4.24,11.95l-14.39-2.58,10,16.74c-1.89,6.82-3.23,13.14-2.79,16.32,0,0-4.47,21,3.48,24.67L603,384.23a10.39,10.39,0,0,0,2.43,1.09l.71.32a1.89,1.89,0,0,0,1.64,0H608a2.44,2.44,0,0,0,1-.15,2,2,0,0,0,.88-.95.17.17,0,0,1,0-.1l5.25-1.52,4.45,5.27c2,1.41,4,2.63,5.89,3.73l-6.89,68.42s-1.11,91-4.47,111.74c-1.24,7.68-1.25,12.92-.78,16.48l-.13.22c.83,5.85,3,7,3,7v-.08a.57.57,0,0,0,.13.08,58.87,58.87,0,0,1,3.6-7.72v1.5c-.07,7.72-.31,18.53-1.11,25.56-1.36,12,3.48,51.55,3.48,51.55l1.67,36a33.33,33.33,0,0,1-4.1,17.54c-4,7.19-9.11,17.31-9.48,21.8a4.45,4.45,0,0,0,0,.73h0l-8.58,10.32s-3.35,5.18,4.22,7.27c4.07,1.13,11.09,0,16.73-1.33a11.19,11.19,0,0,0,8.67-10.88,38.51,38.51,0,0,1,7.08-13.59l1.41,8.29,9.44,2.34,1.21-22.72a10,10,0,0,0,.65-4h0c1.86-16.16-4.38-14.71-4.38-14.71a.86.86,0,0,1,.3.56l-.3-.55h0c-3.83-7.56-2-20-2-20s5-36,6.71-45.51c1.23-6.72.72-28.72.31-41a14.64,14.64,0,0,0,0-1.49c14.64-.19,32.58-.68,45.17-1.9v1.48l-2.32,85a46.64,46.64,0,0,1-3.26,15.82.86.86,0,0,1-.11.29,69,69,0,0,0-4.61,22.29l-1.08,27v.75h0c-1.88.72-4.85,2.81-4.93,8.87-.13,8.88,15.52,5.92,15.52,5.92C711.86,761.31,712,745,712,745s.49-14.93,1.24-24.92-2.36-7.79-2.36-7.79l-.24,28.42V716.05l.24-3.61v-.1h0v-.77l2-29.31s14.41-48.84,16.64-58.21c1.59-6.66.93-26.72.41-37.81a8.82,8.82,0,0,0-.08-1.47c4.47-.4,8.42-.44,10-.44h.73s-.74-78.44-2.61-108-4.84-56.61-12.29-64.75c-4.5-4.92-10.77-20.11-15-31.36a157,157,0,0,0,27.57,9c23.59,4.94,20.36-15.54,20.36-15.54L756.18,335h.16a198.12,198.12,0,0,0-2.6-30.28c-1.25-7.68-3.16-15.62-6.08-22,2.56-1,5.09-2.07,7.57-3.17,6.41-2.83,13.63-6.84,14.55-13.75h-.31A9.81,9.81,0,0,0,769.71,264.23Zm-146.23,56h0c0,4-.1,10.94-.34,18.61l-7.49-10,7.51-12.18ZM727,355.67l-12.48-4a56.11,56.11,0,0,1,7.71-9.54l1.08-1-.39.08.6-.55.36-.08-.57.55L724,341a21.24,21.24,0,0,0,4.25,8.55c4.48,4.89-1.23,6.13-1.23,6.13Z" transform="translate(0.01 0)"/><polygon class="cls-12" points="651.16 715.66 649.7 743.34 640.39 741.01 638.43 729.5 651.16 715.66"/><polygon class="cls-6" points="651.16 715.66 649.7 743.34 640.39 741.01 638.43 729.5 651.16 715.66"/><path class="cls-13" d="M685.32,747l14.2,2.94,10.53-9.3V714.44l.24-3.58v-.11h0V710l2-29.13s14.21-48.49,16.42-57.8c1.56-6.6.91-26.52.39-37.53-.21-4.51-.39-7.53-.39-7.53l-31.35-7.59-.66,24.1L694.37,679a46.74,46.74,0,0,1-3.21,15.71l-.11.29a68.72,68.72,0,0,0-4.55,22.12l-1.06,26.85v.74Z" transform="translate(0.01 0)"/><path class="cls-6" d="M710.29,710v.74h0V710Z" transform="translate(0.01 0)"/><path class="cls-6" d="M685.32,747l14.2,2.94,10.53-9.3v-2.23a3,3,0,0,1-1.51,2.4l-.15.09a28.26,28.26,0,0,1-15.94,3.15l-5.54-.47a5.36,5.36,0,0,0-1.47.36v.74Z" transform="translate(0.01 0)"/><path class="cls-5" d="M708.39,741.64l.15-.08a3,3,0,0,0,1.53-2.6l.23-28.21s3.06-2.19,2.32,7.73-1.22,24.74-1.22,24.74-.12,16.16-15.55,16.16c0,0-15.43,2.94-15.31-5.88s6.37-9.18,6.37-9.18l5.54.48A28.27,28.27,0,0,0,708.39,741.64Z" transform="translate(0.01 0)"/><path class="cls-13" d="M611.36,741c.36,6.37,19.1,2.69,19.1,2.69l12.61-24.48s10.53-8.09,5.26-15.19a11.77,11.77,0,0,1-.77-1.21l0-.06h0c-.11-.18-.21-.37-.31-.57h0c-3.78-7.5-1.92-19.8-1.92-19.8s4.89-35.76,6.61-45.19c1.21-6.66.71-28.51.31-40.73-.16-5.08-.31-8.49-.31-8.49l-31.11-8.33v9.28c-.07,7.67-.31,18.4-1.1,25.38-1.34,11.87,3.43,51.18,3.43,51.18l1.65,35.77a33.12,33.12,0,0,1-4,17.41c-3.9,7.14-9,17.2-9.35,21.65A5.34,5.34,0,0,0,611.36,741Z" transform="translate(0.01 0)"/><path class="cls-6" d="M611.36,741c.36,6.37,19.1,2.69,19.1,2.69l12.61-24.48s10.53-8.09,5.26-15.19a11.77,11.77,0,0,1-.77-1.21c-.17,3.71-4.24,13-4.24,13s-10.41,20.83-13.72,25.6-17.69-.89-18.23-1.09A5.15,5.15,0,0,0,611.36,741Z" transform="translate(0.01 0)"/><path class="cls-5" d="M647.2,702.16s6.16-1.43,4.32,14.61h0a10.34,10.34,0,0,1-4.87,9.17c-4.41,2.77-11.21,8.73-14.65,20.32h0a11.08,11.08,0,0,1-8.55,10.8c-5.56,1.3-12.49,2.44-16.5,1.32-7.47-2.08-4.16-7.22-4.16-7.22L611.36,741s14.94,5.88,18.24,1.1,13.72-25.59,13.72-25.59S649,703.51,647.2,702.16Z" transform="translate(0.01 0)"/><path class="cls-6" d="M697.32,573.38l-.66,24.1C705,596.67,711,595.54,712,594c2.21-3.42,10.23-4.86,17-5.45-.21-4.51-.39-7.53-.39-7.53Z" transform="translate(0.01 0)"/><path class="cls-6" d="M620.78,591.86a11.46,11.46,0,0,1,3.43-4.14c3.3-1.83,2.94,11.76,2.94,11.76s11,.1,25.05-.08c-.16-5.08-.31-8.5-.31-8.5l-31.11-8.32S620.84,586.44,620.78,591.86Z" transform="translate(0.01 0)"/><path class="cls-4" d="M617.23,595.08s3.68-10,7-11.78,2.94,11.75,2.94,11.75,80.82.74,84.86-5.51,27.55-5.88,27.55-5.88-.73-77.88-2.57-107.26-4.77-56.21-12.12-64.29c-4.75-5.23-11.51-22.15-15.69-33.43-2.27-6.16-3.78-10.65-3.78-10.65l-77.14,4.4-.63,6.25-8.19,81.92s-1.1,90.37-4.41,110.94S617.23,595.08,617.23,595.08Z" transform="translate(0.01 0)"/><g class="cls-14"><path d="M705.75,589.54c4-6.24,27.55-5.88,27.55-5.88s-.73-77.88-2.57-107.26-4.77-56.21-12.12-64.29c-4.77-5.25-11.51-22.15-15.69-33.43-1.91-5.18-3.28-9.17-3.66-10.31l6-.34s1.51,4.49,3.79,10.65c4.18,11.28,10.93,28.2,15.68,33.43,7.35,8.08,10.29,34.9,12.12,64.29s2.58,107.26,2.58,107.26-23.51-.36-27.56,5.88c-3.45,5.33-62.92,5.58-80.18,5.53C653.84,595,702.63,594.36,705.75,589.54Z" transform="translate(0.01 0)"/><path d="M618,583.3c1.49-.83,2.23,1.47,2.6,4.26a56.23,56.23,0,0,0-3.47,7.52s-2.13-1.15-3-7C615.3,586,616.65,584,618,583.3Z" transform="translate(0.01 0)"/></g><path class="cls-9" d="M641.07,179.6c-5.34,7.28.06,17.63-5.67,24.71-1.89,2.34-4.8,4-6.77,6.3-3.65,4.26-3.51,10-1.72,15s5,9.56,7.28,14.44c1,2.11,1.74,4.48.74,6.58-.7,1.46-2.15,2.57-3.28,3.83-3.68,4.11-3.78,9.82-1.8,14.66s5.76,9,9.49,13.1c1.47,1.61,3.33,3.39,5.78,3.34a8.08,8.08,0,0,0,3.63-1.19,37,37,0,0,0,16.84-48.29c-3.1-7.43-8.27-14.55-8.32-22.4,0-6.23,3.2-12.18,3.77-18.38.69-7.54-3.77-19.51-12.87-22.8C648.77,173.39,643.78,175.86,641.07,179.6Z" transform="translate(0.01 0)"/><path class="cls-6" d="M641.07,179.6c-5.34,7.28.06,17.63-5.67,24.71-1.89,2.34-4.8,4-6.77,6.3-3.65,4.26-3.51,10-1.72,15s5,9.56,7.28,14.44c1,2.11,1.74,4.48.74,6.58-.7,1.46-2.15,2.57-3.28,3.83-3.68,4.11-3.78,9.82-1.8,14.66s5.76,9,9.49,13.1c1.47,1.61,3.33,3.39,5.78,3.34a8.08,8.08,0,0,0,3.63-1.19,37,37,0,0,0,16.84-48.29c-3.1-7.43-8.27-14.55-8.32-22.4,0-6.23,3.2-12.18,3.77-18.38.69-7.54-3.77-19.51-12.87-22.8C648.77,173.39,643.78,175.86,641.07,179.6Z" transform="translate(0.01 0)"/><path class="cls-6" d="M700.29,444.41c-10.69.56-20.75,5.16-30.11,10.36s-18.42,11.09-28.49,14.78" transform="translate(0.01 0)"/><path class="cls-6" d="M693.65,469.6a44.07,44.07,0,0,0-27.75,13.5c-2.6,2.75-4.84,5.83-7.55,8.47A33.54,33.54,0,0,1,643.47,500" transform="translate(0.01 0)"/><path class="cls-6" d="M695.84,488.77a48.51,48.51,0,0,0-22.32,13.46c-1.64,1.77-3.13,3.66-4.77,5.43-8.85,9.5-21.35,14.54-33.42,19.31" transform="translate(0.01 0)"/><path class="cls-13" d="M694.93,222.92a220.38,220.38,0,0,0,2.2,25.52c1,6,2.4,11.4,4.41,13.79,5.88,7-28.65,16.35-28.65,16.35l-20.39-15.8s16.16-14.88,8.63-29.39S694.93,222.92,694.93,222.92Z" transform="translate(0.01 0)"/><path class="cls-6" d="M627.63,378.68h81.55c-2.27-6.16-3.78-10.65-3.78-10.65l-77.14,4.4Z" transform="translate(0.01 0)"/><path class="cls-7" d="M622.38,377.21h87.19c-2.45-8.77,0-16.88,3.49-23.12a51.24,51.24,0,0,1,9.13-11.84l.6-.55L753.23,335l1.64-.36s.25-55.35-19.35-63-31.35-17.87-31.35-17.87l-26.93,8.32-19.84-10c-6.37,6.85-23.27,4.16-23.27,4.16-27.67,3.18-27.67,24-27.67,24S622.62,318,623.85,318,622.38,377.21,622.38,377.21Z" transform="translate(0.01 0)"/><path class="cls-6" d="M652.48,342s-17.78-3.94-23.83-10.83" transform="translate(0.01 0)"/><path class="cls-6" d="M742.13,321.37l-20.62,16.9a35.92,35.92,0,0,0,.68,4l.6-.55L753.23,335Z" transform="translate(0.01 0)"/><path class="cls-6" d="M686.3,371.33s4.51,2.54,11.42,5.88h11.85c-2.45-8.77,0-16.88,3.49-23.12l-20.89-6.76C699.28,353.94,686.3,371.33,686.3,371.33Z" transform="translate(0.01 0)"/><path class="cls-7" d="M618.7,273.62l-12.24,6.61-12,30.37S582,343.9,583.19,352.72c0,0-4.4,20.82,3.43,24.49l20.4,9.24a1.9,1.9,0,0,0,2.45-2.62c-2.91-5.51-6.11-14.13-1-18.87l-5.88-12.24,21.25-34.78,7.1-12Z" transform="translate(0.01 0)"/><path class="cls-6" d="M645.93,335.07c1.06,4.32,4.64,11,16.49,13.49l13,10.65,13.83,6.27,5.64,2.55,2.39-17.27-5.43-3-6.33-3.46s-14.28-25.87-36.89-15A5,5,0,0,0,645.93,335.07Z" transform="translate(0.01 0)"/><path class="cls-13" d="M646.67,333.6c1.06,4.33,4.63,11,16.48,13.49l13,10.65L690,364l5.63,2.55L698,349.29l-5.43-3-6.28-3.43S672,317,649.4,327.91A5,5,0,0,0,646.67,333.6Z" transform="translate(0.01 0)"/><circle class="cls-6" cx="672.16" cy="213.73" r="31.59"/><circle class="cls-13" cx="672.16" cy="213" r="31.59"/><path class="cls-6" d="M691.72,280.5,682.22,262s13.9-5.62,14.91-12.13,13.32,7.63,10.66,12.32S691.72,280.5,691.72,280.5Z" transform="translate(0.01 0)"/><path class="cls-7" d="M691.72,279l-9.5-18.46s13.9-5.62,14.91-12.13,13.32,7.64,10.66,12.32S691.72,279,691.72,279Z" transform="translate(0.01 0)"/><path class="cls-15" d="M614,326.72l52.49,70.57s-19.35,10.53-46-8.32L609,375.25l-32.86-55.39Z" transform="translate(0.01 0)"/><path class="cls-13" d="M603.64,365.09l4.78-.13s29.2-28.34,36.37-14S626.6,378.7,626.6,378.7l-7.71,4.16-10,3-6.43-8.63Z" transform="translate(0.01 0)"/><path class="cls-6" d="M610.69,380.4c.44,1.63.86,3.43.12,4.94a2,2,0,0,1-.87,1,2.27,2.27,0,0,1-1,.14,10.08,10.08,0,0,1-6.59-3.26,29.86,29.86,0,0,1-4.27-6.18c-1.3-2.27-2.65-4.78-2.19-7.36.52-2.81,3-4.76,5.43-6.34,4.84-3.2,5,.53,6.06,4.65S609.58,376.24,610.69,380.4Z" transform="translate(0.01 0)"/><path class="cls-7" d="M610,380.4c.43,1.63.86,3.43.12,4.94a2,2,0,0,1-.87,1,2.27,2.27,0,0,1-1,.14,10,10,0,0,1-6.59-3.26,29.9,29.9,0,0,1-4.28-6.18c-1.3-2.27-2.65-4.78-2.18-7.36.51-2.81,3-4.76,5.42-6.34,4.85-3.2,5,.53,6.07,4.65S608.84,376.24,610,380.4Z" transform="translate(0.01 0)"/><polygon class="cls-6" points="623.86 317.94 626.3 313.81 624.17 321.48 623.86 317.94"/><path class="cls-6" d="M690,364l5.63,2.55,2.39-17.27-5.43-3C696.37,350.59,693.09,358.54,690,364Z" transform="translate(0.01 0)"/><path class="cls-6" d="M712.63,344s-18.18,1.11-25.9-3.85" transform="translate(0.01 0)"/><g class="cls-14"><path d="M710.37,355.56a51.08,51.08,0,0,1,9.13-11.85,24.94,24.94,0,0,1,2.69-1.46l28.34-5.82,1.64-.36s.25-55.35-19.34-62.95a117.76,117.76,0,0,1-30.56-17.21l2.15-.66s11.75,10.28,31.35,17.87,19.34,62.95,19.34,62.95h-2.94l-29,5.55s-1.25,1.21-1.63,1.56a56,56,0,0,0-9.27,12.26,30.73,30.73,0,0,0-2.43,23.24h-3C704.42,369.91,706.92,361.8,710.37,355.56Z" transform="translate(0.01 0)"/><path d="M633,257.86c.47-.07.92-.14,1.41-.19a50.2,50.2,0,0,0,6,.49A54,54,0,0,1,633,257.86Z" transform="translate(0.01 0)"/><path d="M674.54,263.57l-17.94-9.08a9,9,0,0,0,1-1L676.32,263Z" transform="translate(0.01 0)"/></g><path class="cls-7" d="M742.84,319.86l12,14.7,2.45,39.92s3.18,20.32-20.08,15.42-50.18-20-50.18-20,13-17.39,5.88-24l33.31,10.78s5.63-1.23,1.22-6.12-5.19-13.72-5.19-13.72Z" transform="translate(0.01 0)"/><path class="cls-6" d="M748.26,362l6.61,7.59A9.54,9.54,0,0,1,748.26,362Z" transform="translate(0.01 0)"/><polygon class="cls-6" points="737 360.8 747.29 374.02 742.15 375.25 737 360.8"/><path class="cls-6" d="M634.42,198.5c-1.13-2.77-.26-6,1.1-8.61s3.23-5.08,4.25-7.89c1.51-4.18,1.05-8.91,2.7-13,2.91-7.25,11.18-10.49,18.59-13,2.19-.73,4.52-1.46,6.76-.92,3,.71,4.95,3.43,7.4,5.26,10.06,7.5,26.42-.76,36.15,7.18,3.72,3,5.53,7.91,6.09,12.68s0,9.61-.06,14.42c-.16,8.42,1.42,17.63,7.72,23.21,1.9,1.68,4.14,2.94,6,4.68s3.32,4.17,3,6.69a23.66,23.66,0,0,1-1,3.4c-1.25,4.39.62,9,2.9,13,6.8,11.77,18.79,21.47,32.38,21.74-.91,6.86-8,10.84-14.35,13.65-8,3.59-16.52,7.11-25.33,6.66s-18-6.09-19.54-14.77c-.53-3-.46-6.61-3-8.17-1.56-.95-3.58-.71-5.26-1.42-2.43-1-3.63-3.73-4.43-6.24a56.09,56.09,0,0,1-2.61-16c-.11-6.44.74-13.47-2.91-18.77-3.38-4.91-9.38-7.4-13.28-11.91-3.6-4.18-7.51-9.22-13.41-10C656.12,199.22,639.24,210.31,634.42,198.5Z" transform="translate(0.01 0)"/><path class="cls-9" d="M634.42,197c-1.13-2.77-.26-6,1.1-8.61s3.23-5.08,4.25-7.89c1.51-4.18,1.05-8.91,2.7-13,2.91-7.26,11.18-10.5,18.59-13,2.19-.73,4.52-1.46,6.76-.92,3,.71,4.95,3.43,7.4,5.26,10.06,7.5,26.42-.76,36.15,7.18,3.72,3,5.53,7.91,6.09,12.69s0,9.6-.06,14.41c-.16,8.42,1.42,17.63,7.72,23.21,1.9,1.68,4.14,2.94,6,4.68s3.32,4.17,3,6.69a23.66,23.66,0,0,1-1,3.4c-1.25,4.39.62,9,2.9,13,6.82,11.73,18.76,21.46,32.35,21.73-.91,6.86-8,10.84-14.35,13.66-8,3.58-16.52,7.1-25.33,6.65s-18-6.09-19.54-14.77c-.53-3-.46-6.61-3-8.17-1.56-1-3.58-.71-5.26-1.42-2.43-1-3.63-3.73-4.43-6.24a56.09,56.09,0,0,1-2.61-16c-.11-6.44.74-13.47-2.91-18.77-3.38-4.91-9.38-7.4-13.28-11.91-3.6-4.18-7.51-9.22-13.41-10C656.12,197.75,639.24,208.86,634.42,197Z" transform="translate(0.01 0)"/><path class="cls-6" d="M656.84,278.21,675,263.51s-12.4-6.72-13.88-12.45-11.4,2.72-10.39,7.86S656.84,278.21,656.84,278.21Z" transform="translate(0.01 0)"/><path class="cls-7" d="M657.55,276l18.11-14.69s-12.4-6.72-13.82-12.45-11.4,2.72-10.39,7.86S657.55,276,657.55,276Z" transform="translate(0.01 0)"/><circle class="cls-6" cx="676.38" cy="273.61" r="1.44"/><circle class="cls-6" cx="676.38" cy="281.61" r="1.44"/><circle class="cls-6" cx="676.38" cy="289.6" r="1.44"/><g class="cls-14"><path d="M641.73,176.61c1.43-3.93,1.12-8.34,2.46-12.3a13.74,13.74,0,0,0-1.53,2.82c-1.66,4.13-1.19,8.86-2.71,13l-.1.24A22.76,22.76,0,0,0,641.73,176.61Z" transform="translate(0.01 0)"/><path d="M756,275.6c-8,3.58-16.52,7.1-25.33,6.65s-18-6.09-19.54-14.76c-.53-3-.46-6.62-3-8.18-1.56-.95-3.58-.71-5.26-1.42-2.43-1-3.63-3.73-4.43-6.24a56.09,56.09,0,0,1-2.61-16c-.11-6.43.75-13.46-2.9-18.77-3.39-4.91-9.39-7.39-13.29-11.91-3.6-4.17-7.51-9.22-13.41-10-8.09-1.1-25,10-29.78-1.82a9.27,9.27,0,0,1,.31-6.83c-.35.59-.69,1.18-1,1.78-1.36,2.66-2.22,5.85-1.09,8.62,4.81,11.8,21.69.71,29.78,1.82,5.9.8,9.81,5.85,13.41,10,3.9,4.52,9.9,7,13.28,11.92,3.66,5.3,2.8,12.33,2.91,18.76a56.09,56.09,0,0,0,2.61,16c.8,2.52,2,5.22,4.43,6.24,1.68.71,3.7.48,5.26,1.42,2.58,1.56,2.51,5.21,3,8.18,1.56,8.67,10.74,14.31,19.54,14.76s17.28-3.06,25.33-6.65c5.8-2.58,12.26-6.15,14-12C765.42,271,760.5,273.59,756,275.6Z" transform="translate(0.01 0)"/></g><path class="cls-16" d="M932.71,332c-21.17-12.18-29.17-15.18-29.21-15.18l-.44-.31a17.55,17.55,0,0,1-5.33-6.74c0-.48,0-1,0-1.45a.33.33,0,0,0,0,.14c.33-6.45,4.92-12.32,9.27-17.44L918.13,278a13,13,0,0,0,2.87-4.54,10.47,10.47,0,0,0,.3-2.79V269.5c-.06-3.25-.15-6.51-.27-9.76-.1-2.84-.83-6.42-3.67-7-1.48-.3-3.44.23-4.22-1a2.47,2.47,0,0,1-.19-1.69.33.33,0,0,0,0,.14V250a37.73,37.73,0,0,0,1-6.69,9.07,9.07,0,0,0-.46-3.39c-1.64-4.71-7.31-6.65-12.32-7.54s-10.63-1.65-13.77-5.57a40.73,40.73,0,0,0-2.74-3.77,10.81,10.81,0,0,0-5.12-2.53A29,29,0,0,0,861,222.16c-2.42,1.08-4.85,2.54-7.51,2.38s-5.12-2.08-7.84-2.54c-4.4-.75-8.61,2.48-10.78,6.31a15.4,15.4,0,0,0-2,7.44v.44h0a10.88,10.88,0,0,0,2.86,7.6c1.9,2,4.72,3.32,5.51,5.91.32,1.05.24,2.19.53,3.26a2.91,2.91,0,0,0,.12.39l-.14.19a33,33,0,0,0-7,20.34,33.76,33.76,0,0,0,23.72,32v1c0,4-1.15,8.17-4.6,11.2l-30,12s-18.08-2.15-24.6,24.27a45.08,45.08,0,0,0-1.12,13.4c.24,4-.31,11-5,20.07-7.41,14.52-5.72,47.85,9.44,51.15,14.31,3.12,19.91,1.82,20.5,1.67v.58c-.24,6.26-2.51,60.2-10.76,66.72-2.28,1.81-1.86,3,0,3.85,0,0,0,.35,0,1-.25,4-1.52,19-7,27.52-6.41,9.9-5.74,67-5.74,67L795.14,641s2.69,20.79,0,24.42c-2.41,3.23-5.61,80.14-6.28,96.82h-.28a8.12,8.12,0,0,0-6.48,4c-3.54,5.75-15.94,16.38-15.94,16.38-2.69,3.82-12.64,7.48-17.9,9.2a11.46,11.46,0,0,0-2,.88,10.67,10.67,0,0,0-4.52,4.76,5.13,5.13,0,0,0-.48,4c1.34,3.29,29.31,5.61,36.39,2.3,5.56-2.59,27.6-6,36.75-7.34a7.54,7.54,0,0,0,6.54-6.54,4.31,4.31,0,0,0-.84-3.27h0c-1.75-2.17-2.64-8.1-3-12a8,8,0,0,0,2.06-1.22,87.8,87.8,0,0,1,5-35.31c6.74-17.82,8.76-50.82,7.08-72.27,0,0,20.55-88.44,36.73-96.69h0c.25.32,8.1,10.39,9.1,41.58,1,31.68,12.46,52.47,12.46,52.47s-5.06,53.79,0,73.92l-6.61,31.75c-.49-.41-.8-.73-.8-.73s.2.88.47,2.29l-.14.68.29.06c.75,4,1.86,10.89,1.4,15-.26,2.31-.91,5.48-1.35,8.59-.7,4.89-.89,9.63,1.68,10.67,4.22,1.7,29,4,33.2-1.44a7.79,7.79,0,0,0,1.22-8.15,8.06,8.06,0,0,0-1.22-2.08s-6.58-10.75-4.72-18.33a5.57,5.57,0,0,0-.79-4.35c.29-3.72,1.79-20.94,5.67-35.56,4.22-15.88,13.11-50.7,6.57-73.59h0q-.37-1.35-.84-2.64a98.84,98.84,0,0,1-3.71-38.61,78.62,78.62,0,0,1,0-33.66c4-18.48,6.88-36.63,6.88-36.63s2.23-24.42.28-39.39a9.82,9.82,0,0,0-.13-1l1.06-.24s-5.73-25.41-7.75-41.58c-.48-3.82-1.1-8.65-1.78-13.81a35.83,35.83,0,0,0,5.49-1.37c18.19-6.27,23.92-63,23.92-63v-18S953.94,344.25,932.71,332ZM797.15,770.28c-.56-.28-.89-.47-.89-.47h0Z" transform="translate(0.01 0)"/><path class="cls-17" d="M921.73,659.57c7.89,22.69-1.32,59.52-5.6,76s-5.59,36.18-5.59,36.18c-16.77,2.63-28.94-.66-28.94-.66l6.91-33.87c-4.94-20.06,0-73.67,0-73.67s-11.18-20.72-12.17-52.29c-1-31.07-8.63-41.12-8.87-41.43h0c-15.78,8.22-35.84,96.36-35.84,96.36,1.64,21.37-.34,54.26-6.91,72a89,89,0,0,0-4.93,35.18c-2.3,2-5.5,2.28-9,1.72-9.39-1.52-20.65-9.61-20.65-9.61s3.61-96,6.25-99.64,0-24.34,0-24.34L800.66,608s-.66-56.9,5.59-66.76c5.4-8.52,6.64-23.5,6.88-27.43v-1l9.52-11.4s92.08-6.91,99,0c1.69,1.69,2.74,5.55,3.36,10.4,1.9,14.92-.28,39.25-.28,39.25S922,569.11,918,587.52a80,80,0,0,0,0,33.55A100.41,100.41,0,0,0,921.73,659.57Z" transform="translate(0.01 0)"/><path class="cls-12" d="M916,803.77c-4.11,5.43-28.28,3.13-32.4,1.44-2.51-1-2.32-5.77-1.64-10.64.43-3.09,1.06-6.25,1.32-8.55.65-5.92-2-17.93-2-17.93s5.42,5.76,6.73,0c.58-2.52,2.6-3.81,4.7-4.46a12.32,12.32,0,0,1,8.54.53c4.27,1.86,11.39,5.81,10.12,11.15-1.81,7.55,4.6,18.27,4.6,18.27a8.35,8.35,0,0,1,1.2,2.06A7.9,7.9,0,0,1,916,803.77Z" transform="translate(0.01 0)"/><path class="cls-6" d="M916,803.77c-4.11,5.43-28.28,3.13-32.4,1.44-2.51-1-2.32-5.77-1.64-10.64,2.6,1.22,7,2.23,14.37,1.55a40.54,40.54,0,0,1,5.17-.16,119.25,119.25,0,0,0,15.7-.32A7.9,7.9,0,0,1,916,803.77Z" transform="translate(0.01 0)"/><path class="cls-6" d="M831.62,666.15c1.64,21.37-.34,54.26-6.91,72a89,89,0,0,0-4.93,35.18c-2.3,2-5.5,2.28-9,1.72,2-13.87,10.44-73.63,15.85-120.85,6.17-53.77,35-90.76,35-90.76l5.75,6.33C851.68,578,831.62,666.15,831.62,666.15Z" transform="translate(0.01 0)"/><path class="cls-18" d="M906.1,320.51l-4,19.73-19.67,33.05-24.25-10.36s-33-34.53-12.25-39.46a18.39,18.39,0,0,0,6.88-3.06c4.07-3.07,5.35-7.53,5.37-11.9a36.4,36.4,0,0,0-3.34-14.14l42.42-13.32a68.19,68.19,0,0,0-3,17.18c-.33,11.56,4,17.25,7.49,20A12.87,12.87,0,0,0,906.1,320.51Z" transform="translate(0.01 0)"/><path class="cls-6" d="M897.22,281.05a68.19,68.19,0,0,0-3,17.18,32.29,32.29,0,0,1-2.47,2.63,33.56,33.56,0,0,1-33.54,7.65,36.44,36.44,0,0,0-3.37-14.14Z" transform="translate(0.01 0)"/><path class="cls-18" d="M902.09,275.62a33.55,33.55,0,1,1-33.56-33.54h0a33.39,33.39,0,0,1,33.55,33.23Z" transform="translate(0.01 0)"/><path class="cls-6" d="M906.1,320.51l-4,19.73-19.67,33.05-24.25-10.36s-33-34.53-12.25-39.46a18.39,18.39,0,0,0,6.88-3.06c-3.74,10.28,11.7,31.67,11.7,31.67,1.8,2.65,5.92,1,5.92,1,10-1.51,28.26-30.12,31.25-34.88A12.82,12.82,0,0,0,906.1,320.51Z" transform="translate(0.01 0)"/><path class="cls-6" d="M925.09,511.79c-5.84,1.33-38.15,8.48-50.4,6.69-13.48-2-39.69-3.28-39.69-3.28s-16.69.9-21.83-1.45v-1l9.52-11.4s92.08-6.91,99,0C923.42,503.08,924.47,506.94,925.09,511.79Z" transform="translate(0.01 0)"/><path class="cls-7" d="M864.5,353.07s-17.35-24-10.81-33.4l-29.31,12s-17.64-2.14-24,24.19a45.83,45.83,0,0,0-1.09,13.36c.24,4-.3,11-4.83,20-7.23,14.47-5.59,47.69,9.21,51s20.05,1.64,20.05,1.64S821.72,502,813.2,509s21.8,5.26,21.8,5.26,26.21,1.32,39.7,3.29,51.3-6.91,51.3-6.91-5.59-25.32-7.57-41.43-6.59-50.43-6.59-50.43l33.54-45.44s5.92-27.46-14.8-39.63-28.51-15.15-28.51-15.15-20.82,33.9-31.67,35.54C870.42,354.05,866.3,355.71,864.5,353.07Z" transform="translate(0.01 0)"/><path class="cls-6" d="M826,362.6s-.32,10.86,1.65,15.13,9.21,28,9.21,28H820.43s8.88-9.54,8.23-14.15S826,362.6,826,362.6Z" transform="translate(0.01 0)"/><path class="cls-18" d="M874.7,444.49s-36.32-8.88-39.7-16.44-12.71-24.49-12.71-24.49l3.83-5.16,17.66,13.86s21,16.77,30.92,18.42S874.7,444.49,874.7,444.49Z" transform="translate(0.01 0)"/><path class="cls-19" d="M874.7,444.49s-36.32-8.88-39.7-16.44-12.71-24.49-12.71-24.49l3.83-5.16,17.66,13.86s21,16.77,30.92,18.42S874.7,444.49,874.7,444.49Z" transform="translate(0.01 0)"/><path class="cls-18" d="M906.1,401.74v19.7h-3.16A92.07,92.07,0,0,0,858.22,433l-5.94,3.29-1.59.89-10.2-23,9.54-8.55h.49c2.33.23,12.42,1.07,16.7-.37,4.06-1.38,9.1-5.75,21.06-2.7,5.89,1.51,10.93,8.11,16.64,6.05Z" transform="translate(0.01 0)"/><path class="cls-6" d="M937.84,365.86l6.57,7.4v17.93s-5.59,56.56-23.34,62.81-49.46-3.62-49.46-3.62-8.19-21.7-4.36-23,33.85-9.24,33.85-9.24-.42-33.18,6.15-43.05c0,0-4.27-30.91,10.53-31.57S937.84,365.86,937.84,365.86Z" transform="translate(0.01 0)"/><path class="cls-7" d="M938.84,365.86l6.58,7.4v17.93s-5.59,56.56-23.35,62.81-49.46-3.62-49.46-3.62-8.19-21.7-4.35-23,33.85-9.24,33.85-9.24-.43-33.18,6.15-43.05c0,0-4.28-30.91,10.52-31.57S938.84,365.86,938.84,365.86Z" transform="translate(0.01 0)"/><path class="cls-6" d="M892.89,289.86a13.2,13.2,0,0,0-.75-6.41c-.93-2-3.1-3.51-5.22-3-2.81.66-4,4.32-6.78,5.2-2.33.74-4.87-.91-6-3.08s-1.14-4.72-1.14-7.16v-8.24c0-3-.1-6.22-1.94-8.57-2.29-2.92-7.68-4.2-11.28-4.08a9.58,9.58,0,0,0-6.44,2.59c-1.92,1.64-4.15,2.84-6.77,2.41a5.82,5.82,0,0,1-4.72-4.08v-.1a33.54,33.54,0,0,1,53.61,40.32,34,34,0,0,1-3.75,4.2A90.89,90.89,0,0,0,892.89,289.86Z" transform="translate(0.01 0)"/><path class="cls-20" d="M846.57,258.55a5.87,5.87,0,0,1-4.73-4.09c-.27-1.06-.2-2.19-.51-3.24-.77-2.59-3.53-3.93-5.38-5.9-3.7-3.93-3.46-10.39-.84-15.12,2.12-3.81,6.22-7,10.52-6.28,2.66.46,5,2.35,7.66,2.53s5-1.29,7.33-2.37a27.61,27.61,0,0,1,18.22-1.62,10.46,10.46,0,0,1,5,2.53,41.09,41.09,0,0,1,2.67,3.75c3.06,3.9,8.55,4.67,13.44,5.55s10.42,2.82,12,7.52c1.07,3.12,0,6.5-.58,9.74a2.93,2.93,0,0,0,.13,2c.77,1.26,2.68.73,4.12,1,2.77.59,3.48,4.16,3.59,7q.16,4.86.26,9.73a12.44,12.44,0,0,1-.29,3.6,12.73,12.73,0,0,1-2.79,4.53l-10.86,13c-4.82,5.78-9.93,12.52-9,20-2.28,1-5-.95-5.74-3.34s-.15-5,.36-7.41a89.78,89.78,0,0,0,1.74-12.85,13.17,13.17,0,0,0-.75-6.4c-.93-2-3.1-3.51-5.22-3-2.82.66-4,4.32-6.78,5.2-2.33.74-4.87-.91-6-3.08s-1.14-4.71-1.14-7.15v-8.25c0-3-.1-6.22-1.94-8.57-2.29-2.92-7.68-4.2-11.28-4.08a9.55,9.55,0,0,0-6.43,2.59C851.42,257.77,849.19,259,846.57,258.55Z" transform="translate(0.01 0)"/><path class="cls-6" d="M854.14,361.78l10.3,42.31S872.56,404,854.14,361.78Z" transform="translate(0.01 0)"/><path class="cls-6" d="M889.33,354.71s-13.48,22.08-8.22,44.92l2.51.18S879.14,389.24,889.33,354.71Z" transform="translate(0.01 0)"/><path class="cls-6" d="M897.84,479.68s16.56-5.48,17.76,7.23C915.64,486.91,912.52,478.2,897.84,479.68Z" transform="translate(0.01 0)"/><path class="cls-6" d="M850,406.67s-3.29,23,2.63,32.23c0,0-12,4.93-28.94,4l-2-36.18Z" transform="translate(0.01 0)"/><path class="cls-6" d="M852.28,436.31l-1.59.89-10.2-23,9.54-8.55h.49C850.37,406.79,847.71,426.56,852.28,436.31Z" transform="translate(0.01 0)"/><path class="cls-7" d="M850,405.69s-3.29,23,2.63,32.22c0,0-12,4.94-28.94,3.95l-11.51-36.17Z" transform="translate(0.01 0)"/><path class="cls-12" d="M821.59,789.77a7.44,7.44,0,0,1-6.39,6.52c-8.93,1.33-30.44,4.73-35.87,7.32-6.91,3.29-34.2,1-35.52-2.3a5.22,5.22,0,0,1,.47-4,10.59,10.59,0,0,1,4.41-4.74,11.46,11.46,0,0,1,2-.88c5.14-1.71,14.85-5.35,17.47-9.17,0,0,12.11-10.59,15.56-16.31a7.91,7.91,0,0,1,6.32-3.94c2.88-.13,6.09,1.32,7.41,7.63,0,0,15.77,9,20,1.11,0,0,.66,12.12,3.28,15.44h0A4.43,4.43,0,0,1,821.59,789.77Z" transform="translate(0.01 0)"/><path class="cls-6" d="M821.59,789.77a7.44,7.44,0,0,1-6.39,6.52c-8.93,1.33-30.44,4.73-35.87,7.32-6.91,3.29-34.2,1-35.52-2.3a5.22,5.22,0,0,1,.47-4,10.59,10.59,0,0,1,4.41-4.74c4.45,3,14.33,5.84,36.06,2.45,20.73-3.24,31-6.41,36-8.57h0A4.39,4.39,0,0,1,821.59,789.77Z" transform="translate(0.01 0)"/><g class="cls-14"><path d="M911.32,252v-.16c.47-2.46,1.18-5,1-7.47a48.76,48.76,0,0,1-1,6A3.74,3.74,0,0,0,911.32,252Z" transform="translate(0.01 0)"/><path d="M892.13,282.79a9.55,9.55,0,0,1,.81,3.76,11.31,11.31,0,0,0-.81-5.24c-.92-2-3.09-3.51-5.21-3-2.82.66-4,4.32-6.79,5.2-2.32.74-4.86-.91-6-3.08s-1.14-4.72-1.14-7.16V265c0-3-.1-6.22-1.94-8.57-2.3-2.93-7.68-4.2-11.28-4.09a9.59,9.59,0,0,0-6.44,2.6c-1.93,1.64-4.15,2.84-6.78,2.41a5.86,5.86,0,0,1-4.72-4.08c-.27-1.06-.2-2.2-.51-3.25-.77-2.58-3.53-3.93-5.38-5.89a10.73,10.73,0,0,1-2.77-7,11.21,11.21,0,0,0,2.77,8.43c1.85,2,4.61,3.31,5.38,5.89.31,1,.24,2.19.51,3.25a5.86,5.86,0,0,0,4.72,4.08c2.63.43,4.85-.77,6.78-2.41a9.59,9.59,0,0,1,6.44-2.6c3.6-.11,9,1.16,11.28,4.09,1.84,2.35,1.93,5.58,1.94,8.57v8.24c0,2.44,0,5,1.14,7.15s3.65,3.83,6,3.09c2.76-.88,4-4.54,6.79-5.2C889,279.28,891.21,280.86,892.13,282.79Z" transform="translate(0.01 0)"/><path d="M919.16,273.74a12.63,12.63,0,0,1-2.8,4.52L905.5,291.31c-4.57,5.49-9.4,11.85-9,18.86.33-6.43,4.81-12.28,9-17.38l10.86-13.05a9.52,9.52,0,0,0,3.09-8.13A9.58,9.58,0,0,1,919.16,273.74Z" transform="translate(0.01 0)"/><path d="M890.84,308a7.49,7.49,0,0,1-.33-1.76,8.87,8.87,0,0,0,.33,3.24c.74,2.38,3.45,4.35,5.74,3.33q-.09-.72-.12-1.44C894.18,312.25,891.54,310.31,890.84,308Z" transform="translate(0.01 0)"/></g><path class="cls-6" d="M781.53,769.22s3.44,6,15.9.72" transform="translate(0.01 0)"/><path class="cls-6" d="M886.84,770.68s10.74,12.65,24.28,4.15" transform="translate(0.01 0)"/><path class="cls-6" d="M918.1,621.09s-7.59,4.74-7.83,7.45,3.92-2,3.92-2Z" transform="translate(0.01 0)"/><path class="cls-6" d="M921.1,657.45a15.82,15.82,0,0,1-9.35,3.65c-5.68.25-5.2,7.65-1.49,5.43S921.1,657.45,921.1,657.45Z" transform="translate(0.01 0)"/><path class="cls-6" d="M922.54,662.2s-3.64,17.89-6.6,14.44" transform="translate(0.01 0)"/><path class="cls-21" d="M219.32,796.28s22.85,6.27,33.85-2.07,15.77-5.66,15.77-5.66,26.23-1.45,28.39-7.65-10.06-28.72-10.06-28.72c-.87-2-2.14-4.54-2.71-4.54l.12-9.5h0l3.8-39.75c8.77-22.49.16-51.55.16-51.55l-1.57-7.21a18.23,18.23,0,0,1,1.49-12l15.93-32a47.75,47.75,0,0,1,3-6.14c1-1.83,2.33-4.09,4-6.8.49-.78,1-1.59,1.56-2.44,1.93-3,4.27-6.4,7.1-10.32,7.05-9.77,10.76-22,12.68-31l.85,2.82h.19l.23,0h.38l.41.07H335l4.9,62.36c.3,24.32,9.23,37.78,9.23,37.78l-1.23,53.69c1.68,12.93-2,30.17-3.69,37l-3.86,8.71a10.46,10.46,0,0,0-5.69,7.92c-.76,6.43-7.53,20.29-7.53,20.29C324.55,773,318.86,782,318.86,782s-2.68,8.66-1,11.9,15.54,2.91,15.54,2.91c15.85,3.51,28-5,27.23-10.86s2.47-7.35,2.47-7.35c6.3-2,5.69-6.27,5.69-6.27A39.23,39.23,0,0,0,364,746.75l-1,2.31a35.27,35.27,0,0,1,1.9-13.63l-.58.4-.18.11h-.06c1-8.77,10.21-25,10.21-25,16.92-29.68,10.77-69.9,10.77-69.9l-2.62-12.54-.15-4.73a158,158,0,0,1,2.55-33.7c.91-4.92,1.85-10.86,2.57-17.41,1.52-13.84,6.42-28.12,8.68-34.17l.67-.12h.08c.92-.16,1.85-.32,2.79-.5h.18s.54-2.92,1-7.89c.27-3.17.49-7.19.49-11.81A132.76,132.76,0,0,0,395,477.06l.51-.73s1.21-1.64,3.42-4.48h0c4.06-5.16,10.38-13,18.17-21.84,14-15.91,9.85-32,9.85-32s-10.1-37-14.6-59.23c-2.57-12.66-7.39-21.27-11.08-26.35a52.63,52.63,0,0,0,1.4-10.68c.3-6.58.07-13.44-2.89-19.35s-9.26-10.58-15.84-9.79a6.19,6.19,0,0,1-2.84,0,4.35,4.35,0,0,1-1.87-1.63c-3.85-5.31-4.1-12.45-2.9-18.89s3.66-12.6,4.76-19.06.6-13.63-3.51-18.75c-4.83-6-13.25-7.69-19.53-12.2-4.41-3.17-7.72-7.72-12.37-10.53s-9-1.74-14.05-.68c-8.49,1.79-16.56,2.61-24.59,6.26a65.55,65.55,0,0,0-21.43,15.59,20.41,20.41,0,0,0-4.78,7.54c-2,6.61,1.91,13.65,1.09,20.49-.58,4.85-3.44,9.07-5.71,13.4s-4,9.47-2.22,14c2.8,7.08,11.93,8.58,18.57,12.35a5.57,5.57,0,0,1,2.2,1.91c1.64,2.86-1.71,5.83-3.82,8.37a12.61,12.61,0,0,0-2.5,5.08A18.12,18.12,0,0,0,277.56,329c-2.25,10.07,1.21,22.78,4.26,31.18-3.33,18.71,1,26.09,4.19,28.92A16,16,0,0,1,291.57,400v.35c.21,3.4.57,6.79,1.05,10.17h0c-.11-.79-.22-1.63-.28-2-2.61,4.83-7.58,17.17-10.38,37.93a114,114,0,0,1-2.53,13.21,72.29,72.29,0,0,0-2.12,23.62l.5,6.73a2.16,2.16,0,0,1-1.36-.45L280,496v10.85a40,40,0,0,1-2.66,14.31c-.25.66-.52,1.32-.81,2a11.66,11.66,0,0,0-1.18,5.89c-7.55,11.57-24.86,76.41-24.86,76.41-9.39,21.26.77,35,.77,35s4.92,59.19,5.84,62.25,3,39.14,3,39.14h0v2.87a6.82,6.82,0,0,0-1.71-.49c-8.23-.46-10.46,12.54-10.46,12.54L231,772.86s-7.69-1.3-19,7.19S219.32,796.28,219.32,796.28ZM387.47,454.19l-.05-.18-.46.27h0l-.19.11-.09.06h0l-7.76-27.39a45.48,45.48,0,0,1-.57-22.53l6-26.28h0v-6.32l19.07,50.82C404.64,429.6,393.31,446.19,387.47,454.19Z" transform="translate(0.01 0)"/><path class="cls-22" d="M395.84,536.86s-7.7,18.73-9.66,36.7c-.71,6.48-1.63,12.34-2.53,17.2A157.18,157.18,0,0,0,381.19,624l.15,4.67,2.5,12.37s6,39.73-10.57,69c0,0-9.82,17.53-10.12,25.83l-6.65,2.57-13.44-3.77s6.49-23.27,4.38-39.58l1.21-53s-8.73-13.26-9-37.26L334.49,539Z" transform="translate(0.01 0)"/><path class="cls-22" d="M334.49,527.48s-1.65,25.68-14.35,43.38-15.4,25.38-15.4,25.38L289.1,627.86a18.1,18.1,0,0,0-1.47,11.83l1.54,7.12s8.46,28.7-.15,50.91l-4.08,42.9H261.08s-2-35.65-2.87-38.67-5.74-61.48-5.74-61.48-10-13.6-.76-34.59c0,0,20.85-78.55,26.43-77.19S334.49,527.48,334.49,527.48Z" transform="translate(0.01 0)"/><g class="cls-14"><path d="M286.75,646.86l-1.53-7.12a18,18,0,0,1,1.46-11.88l15.64-31.65s2.71-7.7,15.4-25.38c12.19-17,14.2-41.36,14.34-43.23l2.43-.12s-1.65,25.68-14.35,43.38-15.4,25.38-15.4,25.38L289.1,627.86a18.1,18.1,0,0,0-1.47,11.83l1.54,7.12s8.46,28.7-.15,50.91l-4.08,42.9h-2.42l4.08-42.9C295.21,675.51,286.75,646.86,286.75,646.86Z" transform="translate(0.01 0)"/></g><path class="cls-6" d="M360.77,735.93c.3-8.3,10.12-25.83,10.12-25.83,16.62-29.3,10.57-69,10.57-69l-2.56-12.38-.15-4.67a157.18,157.18,0,0,1,2.46-33.27c.89-4.86,1.81-10.72,2.52-17.2,1.89-17.3,9.1-35.3,9.63-36.62l2.48-.1s-7.7,18.73-9.66,36.7c-.71,6.48-1.63,12.34-2.53,17.2A157.18,157.18,0,0,0,381.19,624l.15,4.67,2.5,12.37s6,39.73-10.57,69c0,0-9.82,17.53-10.12,25.83l-6.65,2.57-1.4-.39Z" transform="translate(0.01 0)"/><path class="cls-23" d="M353.07,735.63a11.55,11.55,0,0,0,11-1.36,35.53,35.53,0,0,0-.9,19.94c2.72,10.88-25.38-8.76-25.38-8.76l6-13.71S346.12,736.08,353.07,735.63Z" transform="translate(0.01 0)"/><path class="cls-6" d="M355.16,736.24a11.25,11.25,0,0,0,8.93-2,35.53,35.53,0,0,0-.9,19.94c2.72,10.88-25.38-8.76-25.38-8.76l6-13.71s1.74,3.34,6.85,3.86C352.21,735.75,353.69,736,355.16,736.24Z" transform="translate(0.01 0)"/><polygon class="cls-22" points="289.33 481.5 301.07 481.5 301.07 414.89 292.26 413.31 289.33 481.5"/><polygon class="cls-19" points="289.33 481.5 301.07 481.5 301.07 414.89 292.26 413.31 289.33 481.5"/><path class="cls-24" d="M346.42,740.77s7.4-.46,10.72,6.19l4.08,3.17,2-4.68a39,39,0,0,1,4.62,25.23s.6,4.22-5.59,6.19c0,0-3.17,1.51-2.42,7.25s-11.17,14.2-26.73,10.72c0,0-13.6.31-15.26-2.87s1.06-11.63,1.06-11.63,5.59-8.86,8.15-12.13c0,0,6.65-13.7,7.41-20S342.49,737.29,346.42,740.77Z" transform="translate(0.01 0)"/><path class="cls-23" d="M285.17,746.36l.12-9.39s-13.51,3.89-24.45-.51c0,0,.92,9.44-.6,10.73s5.06,13.44,5.06,13.44l7.35,7.7,12.64-4.6,3.43-10.8S286.07,746.36,285.17,746.36Z" transform="translate(0.01 0)"/><path class="cls-6" d="M285.17,746.36l.12-9.39s-13.51,3.89-24.45-.51c0,0,.92,9.44-.6,10.73s5.06,13.44,5.06,13.44l7.35,7.7,12.64-4.6,3.43-10.8S286.07,746.36,285.17,746.36Z" transform="translate(0.01 0)"/><path class="cls-24" d="M259.41,743s7.18.83,6.27,10,.38,0,.38,0,7.63,3.09,10.35,7.4,7.63-3.85,8-6.19,3.43-3.31,3.43-3.31,12,22.25,9.88,28.37-27.88,7.53-27.88,7.53-4.69-2.64-15.49,5.59-33.23,2-33.23,2-18.28-7.63-7.17-16,18.65-7.1,18.65-7.1l16.54-15.94S251.33,742.5,259.41,743Z" transform="translate(0.01 0)"/><path class="cls-25" d="M345.16,217c4.57,2.77,7.82,7.27,12.15,10.4,6.16,4.45,14.43,6.11,19.17,12.05,4,5.06,4.52,12.13,3.44,18.51s-3.5,12.47-4.67,18.83-.93,13.41,2.85,18.65a4.32,4.32,0,0,0,1.83,1.61,6,6,0,0,0,2.79,0c6.46-.78,12.66,3.84,15.56,9.67s3.13,12.61,2.83,19.11c-.25,5.33-.85,10.77-3.19,15.57-4,8.16-12.32,13.2-20.53,17.06A159,159,0,0,1,361,365c-3.84,1.3-7.89,2.47-11.88,1.79-6.83-1.18-11.67-7.39-18.15-9.82-5.31-2-11.2-1.28-16.85-.78-4.82.42-10.33.41-13.65-3.11-4.26-4.52-2.34-11.81-.16-17.63A12.55,12.55,0,0,1,291.43,315c2.06-2.51,5.35-5.44,3.74-8.27a5.45,5.45,0,0,0-2.16-1.88c-6.51-3.72-15.48-5.21-18.22-12.19-1.76-4.49-.06-9.57,2.17-13.84s5-8.45,5.61-13.23c.8-6.76-3-13.71-1.07-20.23a20.31,20.31,0,0,1,4.69-7.46,64.35,64.35,0,0,1,21-15.39c7.89-3.61,15.8-4.42,24.14-6.18C336.33,215.23,340.47,214.11,345.16,217Z" transform="translate(0.01 0)"/><path class="cls-22" d="M301.05,317.62s-19.13-1-22.75,15.31,7.85,39.67,7.85,39.67Z" transform="translate(0.01 0)"/><path class="cls-19" d="M301.05,317.62s-19.13-1-22.75,15.31,7.85,39.67,7.85,39.67Z" transform="translate(0.01 0)"/><path class="cls-22" d="M288.84,366.16l7.25,5.74,33.83,1.51L351,358.91l21.48-36.86c-13.13-3.35-18.44-12.42-20.42-20.9a45.8,45.8,0,0,1-.42-17.46s-34.44-17.83-30.21,10a37.71,37.71,0,0,1,.32,10.34c-2,16.3-17.82,13.23-17.82,13.23l-6.07,9.36-6.95,23Z" transform="translate(0.01 0)"/><path class="cls-6" d="M321.5,293.65a37.71,37.71,0,0,1,.32,10.34,30.51,30.51,0,0,0,30.31-2.84,45.8,45.8,0,0,1-.42-17.46S317.27,265.86,321.5,293.65Z" transform="translate(0.01 0)"/><circle class="cls-22" cx="334.52" cy="275.03" r="30.51"/><path class="cls-7" d="M312.93,360.34c.74,0,1.47.11,2.2.18,4,.4,20.71,1.3,30.23-10.07C356,337.73,370.19,322,370.77,321.38h0l14.43,4.36s-11.42-4.06-19,17.18a22,22,0,0,0,7.43,25.31,22.83,22.83,0,0,0,9.44,4,0,0,0,0,1,0,0v9.32h0l-5.9,26a45.07,45.07,0,0,0,.56,22.25l9,31.81h0c-1.36.94-57.2,38.92-94.5,12.69h0c.14-1.14,4.75-38.47,1.55-56.74a126.44,126.44,0,0,1-1.67-14.12v-.35a15.94,15.94,0,0,0-5.47-10.8c-3.36-3-7.91-11-3.41-32.14a77.59,77.59,0,0,1,5-15.23l12.51-28.27h0l11.53.23m0,.08c-1,1.24-14.37,17.94-15.82,28.7-1.42,10.23-3.17,13.37,16.48,14.63Z" transform="translate(0.01 0)"/><path class="cls-22" d="M394.91,330.71s11.28,9.67,15.71,31.62,14.3,58.41,14.3,58.41,4,15.91-9.67,31.62-22.76,28-22.76,28l-9,13.26A11.28,11.28,0,0,1,377,498.2c-4.1,1.08-10.4,1.86-15.86-1.13a9.23,9.23,0,0,1-4-11.67l2-4.63S340.62,492.45,339,486s21.55-12.89,21.55-12.89,19.13-3.22,23-12.28c0,0,20.54-26.39,18.93-35.45l-19.84-53.17s-24.81-3.28-16.35-31.15S394.91,330.71,394.91,330.71Z" transform="translate(0.01 0)"/><path class="cls-17" d="M276.28,531.31s45.32,9.06,56,7.85l1.15,3.83s17.2,3.85,56.09-2.32q3.81-.6,7.91-1.35l.91-.16s.53-2.88,1-7.79c.93-11.15,1.26-32.74-6.59-54.84l-6.54-20.14s-40.42,24.23-67.18,22c-2.39-.2-4.76-.39-7.15-.47-5.49-.21-14,0-19.53-4.43l-11.6,2v33a39.4,39.4,0,0,1-2.62,14.12c-.25.66-.51,1.31-.8,2A10.5,10.5,0,0,0,276.28,531.31Z" transform="translate(0.01 0)"/><path class="cls-6" d="M333.42,532.72V543s19.8,4.43,64.91-3.83c0,0,.53-2.88.95-7.79C385.44,533.59,347.27,538.93,333.42,532.72Z" transform="translate(0.01 0)"/><path class="cls-6" d="M276.28,531.31s45.32,9.06,56,7.85l1.15,3.83V532.72c-5.16,2.14-42-6.74-55.35-10.07-.25.66-.51,1.31-.8,2A10.45,10.45,0,0,0,276.28,531.31Z" transform="translate(0.01 0)"/><path class="cls-17" d="M386.15,519.86l3.36,20.84q3.81-.6,7.91-1.35c-1.05-6.09-3.34-20-2.71-22.31l-4.23-3.62Z" transform="translate(0.01 0)"/><path class="cls-6" d="M386.62,519.41,390,540.26q3.81-.62,7.91-1.35c-1.05-6.09-3.34-20-2.71-22.31L391,513Z" transform="translate(0.01 0)"/><g class="cls-26"><path d="M316.55,478.38c-2.38-.2-4.76-.39-7.15-.47-5.34-.2-13.49,0-19-4.09l1.94-.34c5.56,4.41,14,4.22,19.53,4.43,2.39.08,4.76.27,7.15.47.78.07,1.58.11,2.39.13A45.45,45.45,0,0,1,316.55,478.38Z" transform="translate(0.01 0)"/><path d="M387.09,540.67q3.81-.6,7.91-1.34l.92-.17s.53-2.88.94-7.79c.94-11.15,1.27-32.74-6.59-54.84l-6.16-19c1.31-.74,2-1.17,2-1.17l6.54,20.14c7.85,22.1,7.52,43.69,6.59,54.84-.42,4.91-.95,7.79-.95,7.79l-.91.17c-2.73.49-5.36.94-7.91,1.34-18.17,2.88-31.59,3.58-40.75,3.5A255.73,255.73,0,0,0,387.09,540.67Z" transform="translate(0.01 0)"/><path d="M329.84,539.16v.11h-1.3C329,539.24,329.47,539.2,329.84,539.16Z" transform="translate(0.01 0)"/></g><ellipse class="cls-23" cx="391.79" cy="520.23" rx="1.71" ry="3.52"/><path class="cls-22" d="M282.64,449c2.76-20.5,7.63-32.68,10.2-37.45.1.65.36,2.76.48,3.41.52,3,.06,6.78.22,10.59L291,471.86l3.43,14.5c3.22,11.48-8.71,2.41-8.71,2.41-2.47,5.44-7,4.84-7,4.84l-.62-8.32A71.9,71.9,0,0,1,280.16,462,112.6,112.6,0,0,0,282.64,449Z" transform="translate(0.01 0)"/><path class="cls-19" d="M282.64,449c2.76-20.5,7.63-32.68,10.2-37.45.1.65.36,2.76.48,3.41.52,3,.06,6.78.22,10.59L291,471.86l3.43,14.5c3.22,11.48-8.71,2.41-8.71,2.41-2.47,5.44-7,4.84-7,4.84l-.62-8.32A71.9,71.9,0,0,1,280.16,462,112.6,112.6,0,0,0,282.64,449Z" transform="translate(0.01 0)"/><path class="cls-22" d="M397.42,474c-2.17,2.81-3.36,4.42-3.36,4.42l-9,13.25a11.28,11.28,0,0,1-6.48,4.58c-4.1,1.08-10.4,1.87-15.86-1.13a9.22,9.22,0,0,1-4-11.66l2-4.64s-18.53,11.68-20.14,5.24,21.55-12.89,21.55-12.89,19.13-3.22,23-12.29c0,0,1.67-2.14,4-5.42" transform="translate(0.01 0)"/><path class="cls-17" d="M386.15,496.17S364.24,494,357.3,481.51l-3.18,10.35s23,15.88,28.25,13.82Z" transform="translate(0.01 0)"/><path class="cls-6" d="M385.37,496.07s-21.9-2.13-28.85-14.67l-3.17,10.32s23,15.88,28.24,13.82Z" transform="translate(0.01 0)"/><path class="cls-17" d="M286.42,490.32s-7.67,2.72-9.18,1.21l3.45,6.35,6.52-5Z" transform="translate(0.01 0)"/><path class="cls-6" d="M286.42,490.32s-7.67,2.72-9.18,1.21l3.45,6.35,6.52-5Z" transform="translate(0.01 0)"/><polygon class="cls-6" points="333.43 532.72 333.43 519.47 330.28 533.04 333.43 532.72"/><path class="cls-6" d="M364.49,258.92c-1.85,2.6-5.06,3.92-8.22,4.33s-6.36.06-9.55,0c-5-.08-10.32.69-14.41,3.63-2.61,1.87-4.57,4.5-6.61,7-6.18,7.55-14.76,14.62-24.5,13.83a6.36,6.36,0,0,1-4.55-1.92,7.29,7.29,0,0,1-1.16-4.14,94.66,94.66,0,0,1,.59-18.66,39.26,39.26,0,0,1,2.82-11.13,37.94,37.94,0,0,1,6.78-9.68,41.6,41.6,0,0,1,11.83-9.48,21.19,21.19,0,0,1,14.8-1.91c5.83,1.59,10.37,6.15,15.93,8.5C354.59,242,371.45,249.09,364.49,258.92Z" transform="translate(0.01 0)"/><path class="cls-25" d="M364.49,257.71c-1.85,2.6-5.06,3.92-8.22,4.33s-6.36.06-9.55,0c-5-.09-10.32.68-14.41,3.62-2.61,1.87-4.57,4.5-6.61,7-6.18,7.55-14.76,14.62-24.5,13.83a6.34,6.34,0,0,1-4.55-1.92,7.22,7.22,0,0,1-1.16-4.14,94.66,94.66,0,0,1,.59-18.66,39.26,39.26,0,0,1,2.82-11.13,37.89,37.89,0,0,1,6.78-9.67,41.33,41.33,0,0,1,11.83-9.49,21.19,21.19,0,0,1,14.8-1.91c5.83,1.59,10.37,6.15,15.93,8.5C354.59,240.75,371.45,247.86,364.49,257.71Z" transform="translate(0.01 0)"/><polygon class="cls-22" points="292.31 473.47 292.23 477.12 291.41 473.63 292.31 473.47"/><polygon class="cls-19" points="292.31 473.47 292.23 477.12 291.41 473.63 292.31 473.47"/><g class="cls-26"><path d="M369.42,339.15C361,367,385.64,370.29,385.64,370.29l19.84,53.17c1.61,9.06-18.94,35.45-18.94,35.45-1.43,3.38-5,5.95-8.9,7.85a14,14,0,0,0,5.28-5.8s20.54-26.38,18.93-35.44L382,372.34s-24.68-3.27-16.22-31.14c2.83-9.31,7-13.55,11.22-15.07C374.1,328.47,371.43,332.52,369.42,339.15Z" transform="translate(0.01 0)"/></g><g class="cls-14"><path d="M369.84,364.47a20.84,20.84,0,0,0,4,3.79,22.83,22.83,0,0,0,9.44,4v1.05a22.51,22.51,0,0,1-8.56-3.79A20.72,20.72,0,0,1,369.84,364.47Z" transform="translate(0.01 0)"/><path d="M293.12,404.34v.35a129.85,129.85,0,0,0,1.72,14.17c3,17.24-.93,51.47-1.49,56.2l-1-.64h0c.15-1.14,4.76-38.47,1.56-56.73a126.44,126.44,0,0,1-1.67-14.12v-.35a15.47,15.47,0,0,0-2.69-7.65A15.58,15.58,0,0,1,293.12,404.34Z" transform="translate(0.01 0)"/><path d="M311.53,318.06l-9.78-.19h-.05l-12.5,28.26a77.59,77.59,0,0,0-5,15.23c-3.64,17.1-1.35,25.62,1.43,29.83-3.13-3.69-6.36-12.1-2.33-31A77.54,77.54,0,0,1,288.25,345l12.59-28.26h0l11.53.23m0,.07-.84,1.07Z" transform="translate(0.01 0)"/><path d="M385.23,325.73l.17,0Z" transform="translate(0.01 0)"/><path d="M381.64,325.57l-9.8-2.95m0,0c-.58.64-14.75,16.35-25.4,29.07-9.52,11.37-26.21,10.48-30.23,10.08-.73-.08-1.47-.14-2.2-.19-10.93-.7-15.23-2-16.67-4.76,2,2,6.56,3,15.76,3.56.74,0,1.47.11,2.2.18,4,.4,20.71,1.29,30.23-10.07,10.65-12.73,24.83-28.44,25.41-29.08h0l14.26,4.32a8.84,8.84,0,0,0-3.51-.16Z" transform="translate(0.01 0)"/></g><path class="cls-6" d="M265.61,757.49s-13.8,3.77-16.47-2.15" transform="translate(0.01 0)"/><path class="cls-6" d="M353.22,754.66s-16,4.13-19.7-2.26" transform="translate(0.01 0)"/><path class="cls-27" d="M510.21,849.33s-3.18,3-1.5,4.77" transform="translate(0.01 0)"/><path class="cls-27" d="M508.84,847.42s-2.94,1-2.94,3.69" transform="translate(0.01 0)"/><path class="cls-27" d="M555.07,849.33s3.18,3,1.5,4.77" transform="translate(0.01 0)"/><path class="cls-27" d="M556.47,847.42s2.94,1,2.94,3.69" transform="translate(0.01 0)"/><ellipse class="cls-1" cx="192.61" cy="716.06" rx="26.93" ry="4.55"/><ellipse class="cls-1" cx="86.52" cy="780.59" rx="26.93" ry="4.55"/><ellipse class="cls-7" cx="58.48" cy="722.86" rx="40.21" ry="6.8"/><path class="cls-7" d="M41.84,711.74A11.61,11.61,0,0,1,38,706c-.49-2.3.49-5.05,2.68-5.89,2.46-.94,5.09.76,7.08,2.48s4.28,3.69,6.89,3.33a10.49,10.49,0,0,1-3.24-9.82,4,4,0,0,1,.9-2c1.36-1.46,3.84-.83,5.48.32C63,698,64.44,705.1,64.46,711.46c.53-2.3.09-4.68.1-7s.66-5,2.64-6.22a8,8,0,0,1,4-1c2.34-.08,4.94.15,6.54,1.86,2,2.12,1.47,5.69-.26,8s-4.35,3.8-6.76,5.42a14.91,14.91,0,0,0-4.84,4.61,4.26,4.26,0,0,0-.36.82H50.91A40.75,40.75,0,0,1,41.84,711.74Z" transform="translate(0.01 0)"/><ellipse class="cls-1" cx="1029.84" cy="754.12" rx="26.93" ry="4.55"/><path class="cls-28" d="M1011.75,733s15.36-.47,20-3.77,23.62-7.23,24.77-1.94,23.09,26.29,5.74,26.43-40.29-2.7-44.91-5.52S1011.75,733,1011.75,733Z" transform="translate(0.01 0)"/><path class="cls-29" d="M1062.56,751.86c-17.34.14-40.29-2.7-44.91-5.52-3.52-2.14-4.92-9.83-5.39-13.38h-.51s1,12.39,5.59,15.2,27.57,5.66,44.91,5.52c5,0,6.74-1.82,6.64-4.46C1068.2,750.86,1066.29,751.86,1062.56,751.86Z" transform="translate(0.01 0)"/></svg>