<svg xmlns="http://www.w3.org/2000/svg" viewBox="0 0 425.1 368.31"><defs><style>.cls-1{fill:#c6e3f1;}.cls-1,.cls-10,.cls-11,.cls-15,.cls-16,.cls-17,.cls-18,.cls-2,.cls-20,.cls-22,.cls-23,.cls-24,.cls-25,.cls-26,.cls-28,.cls-29,.cls-3,.cls-30,.cls-4,.cls-5,.cls-6,.cls-7,.cls-8,.cls-9{fill-rule:evenodd;}.cls-19,.cls-2{fill:#fff;}.cls-3{fill:#000618;}.cls-4{fill:#01020e;}.cls-5{fill:#ef8871;}.cls-6{fill:#f4ad85;}.cls-7{fill:#d84f50;}.cls-8{fill:#c23e3e;}.cls-9{fill:#b23539;}.cls-10{fill:#ea745d;}.cls-11{fill:#0f1630;}.cls-12{fill:#be865e;}.cls-13{fill:#915e40;}.cls-14{fill:#d49d80;}.cls-15{fill:#d5eaf5;}.cls-16{fill:#ecf6fc;}.cls-17,.cls-21{fill:#a6cae4;}.cls-18{fill:#dc5645;}.cls-20{fill:#f09a9b;}.cls-22{fill:#63a9ba;}.cls-23{fill:#80b9c9;}.cls-24{fill:#b8b8c1;}.cls-25{fill:#3a7f80;}.cls-26{fill:#51a5a5;}.cls-27,.cls-28{fill:#2f365c;}.cls-29{fill:#121c39;}.cls-30{fill:#a62a34;}.cls-31{fill:#de7272;}</style></defs><title>Ativo 1</title><g id="Camada_2" data-name="Camada 2"><g id="OBJECTS"><path class="cls-1" d="M388.74,256.43a32.12,32.12,0,0,0-32,32h0a58.63,58.63,0,0,1-58.45,58.45H76.78A76.15,76.15,0,0,1,.84,271h0a76.16,76.16,0,0,1,75.94-75.93h0A15.28,15.28,0,0,0,92,179.81h0a15.28,15.28,0,0,0-15.23-15.24H37a37.15,37.15,0,0,1-37-37H0a37.15,37.15,0,0,1,37-37H73.12a32.13,32.13,0,0,0,32-32h0A58.63,58.63,0,0,1,163.6,0H349a76.16,76.16,0,0,1,75.93,75.93h0A76.16,76.16,0,0,1,349,151.86h0a15.29,15.29,0,0,0-15.24,15.24h0A15.29,15.29,0,0,0,349,182.34h39.73C437.21,182.34,437.21,256.43,388.74,256.43Z"/><path class="cls-2" d="M158.91,61a1.06,1.06,0,1,0-1.41-1.59c-.54.48-1.07,1-1.59,1.46a1.05,1.05,0,0,0-.23,1.24,1.07,1.07,0,0,0,1.69.31c.5-.48,1-1,1.54-1.42Zm96.34,243.68a1.07,1.07,0,0,0,.05,2.13h.88l1.11,0h.16a1.06,1.06,0,0,0,.51-2,1.15,1.15,0,0,0-.6-.16l-1.22,0Zm8.41-.46a1.07,1.07,0,0,0,.23,2.12l1-.1,1.17-.14a1.06,1.06,0,0,0,.48-1.92,1.08,1.08,0,0,0-.76-.19l-1.12.13-1,.1ZM272,303a1.08,1.08,0,0,0-.77.61,1.07,1.07,0,0,0,1.19,1.47L273,305l1-.21.49-.11a1.07,1.07,0,0,0,.16-2,1.13,1.13,0,0,0-.63,0l-.47.1-1,.2L272,303Zm8.15-2a1.06,1.06,0,1,0,.64,2l.86-.27.92-.3.28-.09a1.08,1.08,0,0,0,.68-.73,1.07,1.07,0,0,0-1.38-1.28l-.25.08-.89.29-.86.27Zm7.88-2.89a1.05,1.05,0,0,0-.63.93,1.06,1.06,0,0,0,1.5,1l.71-.31.85-.38.4-.19a1.07,1.07,0,0,0-.34-2,1,1,0,0,0-.57.1l-.38.17-.82.37-.72.32Zm7.5-3.77a1.07,1.07,0,0,0,.62,2,1.09,1.09,0,0,0,.46-.15l.31-.18.77-.46.76-.46a1.07,1.07,0,0,0-.64-2,1,1,0,0,0-.48.16l-.74.45-.74.44-.32.19Zm7-4.63a1.06,1.06,0,0,0,.94,1.86,1.19,1.19,0,0,0,.36-.17l.46-.36.69-.53.55-.44a1.07,1.07,0,0,0-.55-1.89,1.11,1.11,0,0,0-.79.23l-.53.42-.67.53-.46.35Zm6.36-5.45a1.06,1.06,0,1,0,1.5,1.51l.43-.42.61-.61.48-.49a1,1,0,0,0,.29-.88,1.06,1.06,0,0,0-1.82-.6l-.47.48-.59.59-.43.42Zm5.65-6.2a1.07,1.07,0,0,0,1.67,1.33l.31-.39.53-.67.49-.64a1.07,1.07,0,0,0-.86-1.71,1.1,1.1,0,0,0-.84.42l-.48.63-.51.65-.31.38Zm4.87-6.83a1.06,1.06,0,0,0,1.09,1.61,1.08,1.08,0,0,0,.72-.49l.17-.27.44-.72.51-.86a1.07,1.07,0,0,0-1.85-1.06l-.48.81-.43.7-.17.28Zm4-7.36a1.07,1.07,0,0,0,1.93.91l.41-.89.35-.77.14-.31a1.07,1.07,0,0,0-1.66-1.25,1.17,1.17,0,0,0-.3.4l-.13.3-.33.75-.41.86Zm3.17-7.77a1.07,1.07,0,0,0,1.69,1.16,1.12,1.12,0,0,0,.33-.48l.25-.75.26-.8.16-.5a1.06,1.06,0,0,0-2-.63l-.15.48-.26.78-.25.74Zm2.3-8.08a1.07,1.07,0,0,0,1.82,1,1,1,0,0,0,.26-.5l.14-.62.18-.83.13-.65a1.06,1.06,0,0,0-1.86-.89,1,1,0,0,0-.23.47l-.13.63-.17.81-.14.62Zm1.44-8.28a1.06,1.06,0,1,0,2.11.25l.07-.54.09-.85.07-.75a1.06,1.06,0,0,0-1.86-.8,1.12,1.12,0,0,0-.26.6l-.07.73-.09.83-.06.53Zm.58-8.38a1.06,1.06,0,1,0,2.12,0v-2.15a1.07,1.07,0,1,0-2.13,0v2.11Zm-.27-8.4a1.06,1.06,0,0,0,2.12-.19l0-.51-.08-.87-.08-.76a1.07,1.07,0,0,0-2.12.23l.08.74.08.84,0,.52Zm-1.1-8.34a1.05,1.05,0,0,0,.6.77,1.06,1.06,0,0,0,1.49-1.16l-.11-.6-.17-.85-.13-.66a1.07,1.07,0,1,0-2.09.43l.14.64.16.84.11.59Zm-1.92-8.18a1.07,1.07,0,0,0,1,.76,1.06,1.06,0,0,0,1-1.37l-.21-.72-.25-.85-.16-.49a1.06,1.06,0,0,0-2.06.15.94.94,0,0,0,0,.5l.14.47.25.82.21.73Zm-2.72-8a1.07,1.07,0,1,0,2-.79l-.38-.93-.34-.82-.11-.24a1.06,1.06,0,0,0-1.95.85l.1.22.33.8.37.91Zm-3.49-7.64a1.07,1.07,0,0,0,2-.51,1.19,1.19,0,0,0-.13-.48l-.2-.39-.42-.8-.39-.71a1.07,1.07,0,0,0-2,.54,1,1,0,0,0,.14.49l.37.7.42.77.2.39Zm-4.24-7.25a1.09,1.09,0,0,0,1,.47,1.07,1.07,0,0,0,.78-1.66l-.49-.73-.51-.76-.2-.29a1.05,1.05,0,0,0-1.1-.43,1.06,1.06,0,0,0-.64,1.65l.18.27.5.74.49.74Zm-4.95-6.8a1.07,1.07,0,0,0,1.88-.86,1.11,1.11,0,0,0-.23-.49l-.35-.44-.6-.71-.42-.51a1.07,1.07,0,0,0-1.62,1.39l.41.48.58.7.35.44Zm-5.6-6.27a1.07,1.07,0,0,0,1.79-1,1,1,0,0,0-.29-.5l-.27-.29-.68-.67-.58-.56a1.07,1.07,0,0,0-1.77,1,1.1,1.1,0,0,0,.3.52l.56.54.66.66.28.28Zm-6.2-5.68a1.07,1.07,0,0,0,1.74-.92,1.1,1.1,0,0,0-.39-.73l-.32-.27-.76-.61-.59-.47a1.06,1.06,0,0,0-1.32,1.67l.58.46.73.6.33.27Zm-6.72-5.05a1.08,1.08,0,0,0,1.24,0,1.06,1.06,0,0,0-.06-1.73l-.57-.39-.84-.55-.38-.25a1.07,1.07,0,0,0-1.53,1.36.93.93,0,0,0,.38.43l.37.24.82.54.57.39Zm-7.18-4.41a1.06,1.06,0,1,0,1-1.86l-.2-.11-.91-.5-.79-.41a1.06,1.06,0,0,0-1.45,1.4,1,1,0,0,0,.47.49l.76.4.89.48.2.11ZM279,151.65a1.07,1.07,0,1,0,.86-2l-1-.44-1-.41a1.07,1.07,0,0,0-.82,2l.94.39,1,.44Zm-7.84-3.08a1.06,1.06,0,1,0,.69-2l-.15-.06-1.88-.63a1.07,1.07,0,0,0-1.28,1.49,1,1,0,0,0,.62.54l1.85.62.15,0ZM263,146a1.06,1.06,0,1,0,.58-2l-2.06-.58a1,1,0,0,0-.8.1,1.06,1.06,0,0,0,.24,1.95l2,.57Zm-8.19-2.14a1.06,1.06,0,0,0,1-1.83,1,1,0,0,0-.46-.24c-.67-.12-1.41-.33-2.08-.49a1.07,1.07,0,0,0-1.11,1.66,1.09,1.09,0,0,0,.63.42c.67.15,1.41.36,2.07.48Zm-8.28-1.81A1.06,1.06,0,0,0,247,140l-2.1-.4a1.06,1.06,0,0,0-.89,1.85,1.13,1.13,0,0,0,.49.24l2.09.4Zm-8.35-1.51a1.07,1.07,0,0,0,.9-1.83,1,1,0,0,0-.55-.27l-2.11-.34a1.06,1.06,0,0,0-.73,2,.92.92,0,0,0,.4.15l2.09.34Zm-8.39-1.26a1.06,1.06,0,0,0,1-1.69,1,1,0,0,0-.71-.42l-2.11-.28a1.06,1.06,0,0,0-.78,1.9,1,1,0,0,0,.5.21l2.11.28Zm-8.43-1a1.07,1.07,0,1,0,.23-2.12l-2.12-.22a1.07,1.07,0,0,0-.8,1.87,1,1,0,0,0,.58.24l2.11.23Zm-8.45-.83a1.07,1.07,0,0,0,.77-1.89,1.13,1.13,0,0,0-.58-.23l-2.13-.18a1.06,1.06,0,1,0-.18,2.12l2.12.18Zm-8.51-.76a1.07,1.07,0,0,0,.24-2.12l-2.11-.23a1.08,1.08,0,0,0-1,.44,1.07,1.07,0,0,0,.75,1.67l2.12.24ZM196,135.59A1.07,1.07,0,0,0,197,134a1,1,0,0,0-.76-.51l-2.08-.34a1.06,1.06,0,1,0-.37,2.09c.7.13,1.41.24,2.12.35ZM187.52,134a1.07,1.07,0,0,0,1-1.73,1.06,1.06,0,0,0-.59-.35l-2.06-.47a1.06,1.06,0,0,0-1.15,1.59,1.08,1.08,0,0,0,.66.48l2.1.48Zm-8.33-2.14a1.06,1.06,0,0,0,1.14-1.68,1.14,1.14,0,0,0-.53-.36c-.67-.19-1.34-.4-2-.61a1.06,1.06,0,1,0-.66,2c.69.22,1.37.43,2.06.63Zm-8.14-2.8a1.08,1.08,0,0,0,1.15-.24,1.06,1.06,0,0,0-.36-1.74l-1.94-.8a1.06,1.06,0,0,0-1.21,1.69,1.18,1.18,0,0,0,.37.26c.66.29,1.32.56,2,.83Zm-7.83-3.64a1.08,1.08,0,0,0,1,0,1.07,1.07,0,0,0,.06-1.9q-.93-.5-1.83-1a1,1,0,0,0-.94-.07,1.06,1.06,0,0,0-.14,1.9c.62.36,1.25.72,1.89,1.06Zm-7.32-4.65a1.06,1.06,0,0,0,1.65-1.19,1.09,1.09,0,0,0-.36-.51c-.56-.41-1.11-.84-1.65-1.28a1.06,1.06,0,0,0-1.35,1.64c.57.46,1.13.91,1.71,1.34ZM149.44,115a1.07,1.07,0,0,0,1.83-.94,1,1,0,0,0-.25-.49c-.47-.51-.91-1-1.35-1.57a1.07,1.07,0,1,0-1.65,1.35c.46.56.93,1.11,1.42,1.65Zm-5.12-7.09a1.07,1.07,0,1,0,1.87-1c-.34-.61-.65-1.21-.95-1.84a1.06,1.06,0,1,0-1.92.91c.31.66.65,1.31,1,2Zm-3.23-8.15a1,1,0,0,0,.66.74,1.07,1.07,0,0,0,1.41-1.25c-.17-.67-.32-1.33-.44-2a1.06,1.06,0,0,0-2.07-.1.93.93,0,0,0,0,.47c.13.72.28,1.44.46,2.15Zm-1-8.72a1.06,1.06,0,0,0,2,.55,1.09,1.09,0,0,0,.13-.5c0-.68.05-1.37.11-2a1.06,1.06,0,0,0-2-.64,1,1,0,0,0-.15.45c-.06.72-.1,1.46-.11,2.19Zm1.4-8.67a1.09,1.09,0,0,0,0,.69,1.06,1.06,0,0,0,2,0,20.33,20.33,0,0,1,.67-2,1.07,1.07,0,1,0-2-.77c-.26.68-.5,1.39-.71,2.08Zm3.54-8a1.06,1.06,0,1,0,1.84,1.07c.35-.6.71-1.19,1.08-1.78a1.05,1.05,0,0,0-.08-1.25,1.06,1.06,0,0,0-1.71.1c-.39.62-.77,1.24-1.13,1.86ZM150,67.22a1.07,1.07,0,0,0,.9,1.74,1.09,1.09,0,0,0,.75-.39c.44-.54.89-1.07,1.35-1.6a1.06,1.06,0,0,0-1.16-1.7,1.19,1.19,0,0,0-.44.3C150.93,66.11,150.46,66.66,150,67.22Z"/><path class="cls-3" d="M168.91,149.29a.69.69,0,0,1,.94-.2.67.67,0,0,1,.2.93c-.07.12-26.81,41.67-5.69,65.89a.68.68,0,0,1-.07,1,.67.67,0,0,1-.95-.06C141.55,191.81,168.84,149.42,168.91,149.29Z"/><path class="cls-3" d="M246.9,143.51a.67.67,0,1,1,1.14-.72c0,.07,15.31,23.78-.8,42a.67.67,0,0,1-1,.06.68.68,0,0,1,0-1C261.67,166.44,246.94,143.57,246.9,143.51Z"/><path class="cls-3" d="M173.24,121.24,162,133.62a45.27,45.27,0,0,1,4.86,22.06c-.54,12.52-42.74,81.9,35.23,81.54s34.58-40.58,34.58-40.58,25.72-8.32,12.73-45.56S173.24,121.24,173.24,121.24Z"/><path class="cls-4" d="M237.36,197.34c-.45-.45-.72-.7-.72-.7a17.09,17.09,0,0,0,2.34-1,70.79,70.79,0,0,0,6.66-8.8c10.63-16.53-.68-39.26-.68-39.26l-6-1.79s-12-4.29-15.2-5.37-40.41,1.25-51,21.1,1.2,48.63,1.2,48.63,43.86-1.42,46.36-1.6C222.2,208.39,229.41,205.58,237.36,197.34Z"/><path class="cls-5" d="M258.33,208.17c12.52,5.47,14.15,16.92,15.78,29.66,1.44,11.31,1.89,28.36-1.09,54.27s-50.32-34.18-50.32-34.18Z"/><path class="cls-6" d="M184.67,207.83l-12.16-6.22s-12.85,3.2-19.42,11.46-26.47,78.87-27.22,87.5,5.1,41.55,15.8,41.55,16-71.95,16-71.95l8.74-27Z"/><path class="cls-5" d="M184.67,207.83l-12.16-6.22a47.87,47.87,0,0,0-8.88,3.41c1.58.76,2.81,2.71,2.67,7-.38,11.26-17.56,54.26-21.32,66.28s-6.76,19.16-6.76,19.16l-7.82-16.42c-.71,2.65-1.35,5.14-1.92,7.4,2.92,15.78,6.57,37.41,7.06,49.77,1.81,2.41,3.86,3.89,6.13,3.89,10.7,0,16-71.95,16-71.95l8.74-27Z"/><path class="cls-7" d="M216.89,192.32s32.31,11.51,41.44,15.85c0,0-1.75,1.82-3.71,11.73s0,24.41-2.06,38.68c-1.5,10.31-8.48,62.48-12.24,90.63l-79.64-6.42c0-1.25-.07-2.76-.15-4.47,6.54,5.09,12.81,5.32,8.93-9.56-6.76-25.91-5.44-71-3.19-84.5s5.61-27.75,2.42-41.46C170.83,200.87,216.89,192.32,216.89,192.32Z"/><path class="cls-8" d="M238.11,200.08c8.09,3,16.3,6.22,20.22,8.09,0,0-1.75,1.82-3.71,11.73s0,24.41-2.06,38.68c-.3,2.06-.82,5.81-1.49,10.7-18,2.8-71.14,8.89-83.9,7.76a22.29,22.29,0,0,1-2.72-.41c0-14.06.82-26.35,1.82-32.37.06-.35.12-.69.17-1,4.51,13.29,61.19,20.71,61.19,20.71s9.39-20.78,7-28.48S220.87,228,220.87,228l.29-6.88s11.27-15.26,14-19.9C235.47,200.6,236.53,200.25,238.11,200.08Z"/><path class="cls-9" d="M242.69,201.81l.67.26c-1.43,5.79-3.36,12.58-6,16.58A28.53,28.53,0,0,1,228,228c-4.1,2.38-9.46,3.81-17,3.62a25.16,25.16,0,0,1-15.84-6,33.06,33.06,0,0,1-10-15.75c-2.06-7.2-4-9.6-4.67-10.25l.79-.17c.92,1.08,2.73,3.84,4.56,10.22a32.33,32.33,0,0,0,9.81,15.41A24.4,24.4,0,0,0,211,230.87c7.35.18,12.59-1.21,16.59-3.52a28,28,0,0,0,9.12-9.09c2.64-3.93,4.54-10.69,6-16.45Zm13.28,5.3.59.25c-1.56,2.76-3.75,8.54-5.76,20.64-2.41,14.5.35,21,2.47,23.79,0,.33-.05.66-.08,1-2.27-2.58-5.7-9.23-3.09-24.9,2-11.89,4.21-17.82,5.87-20.77Zm-90.24,41.17q.08-.69.15-1.32c1.82-3.57,8.73-19.29,4.79-45l.68-.21c4.53,29.35-5,45.91-5.27,46.29a.39.39,0,0,1-.08.1A.36.36,0,0,1,165.73,248.28Z"/><path class="cls-5" d="M214.39,157.75h.24a12.78,12.78,0,0,1,12.91,12.61l.16,25.87c4.69,1.71,10.3,3.79,15.55,5.8-8.27,17.85-18,29.65-33.6,26.27-21.35-4.63-20.59-22.56-27.09-29.17,6.07-1.31,13.2-2.74,19.38-3.95l-.15-24.52A12.81,12.81,0,0,1,214.39,157.75Z"/><path class="cls-10" d="M226.74,166.05a12.4,12.4,0,0,1,.8,4.31l.16,25.87c4.69,1.71,10.3,3.79,15.55,5.8-6.08,13.13-13,23-22.38,25.93,15-10.1,10.37-22.57,7.18-23.88s-28.53-8.43-28.53-8.43l2.42-.47-.15-24.52a12.82,12.82,0,0,1,4.58-9.91C213.12,160.68,219.85,162.78,226.74,166.05Z"/><path class="cls-10" d="M243.24,133.25c.25,0,.49,0,.74,0h0a10,10,0,1,1-8,3.09c.14,2.95,1.08,6.49,4.85,6.36l-.86-5.68A3.43,3.43,0,0,1,243.24,133.25Z"/><path class="cls-10" d="M172,144.49c-.24.06-.48.14-.71.22h0a10,10,0,1,0,8.52.89c.64,2.88.65,6.56-3,7.41l-.65-5.71A3.43,3.43,0,0,0,172,144.49Z"/><path class="cls-6" d="M202.79,89.49h0a34.23,34.23,0,0,1,38.34,29.33l4.1,30.77a34.24,34.24,0,0,1-29.33,38.33h0a34.23,34.23,0,0,1-38.34-29.33l-4.09-30.77A34.23,34.23,0,0,1,202.79,89.49Z"/><path class="cls-5" d="M202.79,89.49h0A34.25,34.25,0,0,1,240.63,116a14.21,14.21,0,0,1-1.56,5l-15.77-.92s-10.38,19.84-31.7,24.66c-5.73,1.3-7.52,7.08-6.35,12.56,2.85,13.37,14.32,32.52,42.57,26.7a33.78,33.78,0,0,1-11.92,3.93h0a34.23,34.23,0,0,1-38.34-29.33l-4.09-30.77A34.23,34.23,0,0,1,202.79,89.49Z"/><path class="cls-10" d="M196.61,157.3a4.49,4.49,0,1,1-3.76,5.12A4.49,4.49,0,0,1,196.61,157.3Z"/><path class="cls-10" d="M233.4,151.48a4.49,4.49,0,1,1-3.76,5.12A4.49,4.49,0,0,1,233.4,151.48Z"/><path class="cls-4" d="M191.36,139.46A1.28,1.28,0,1,0,191,142a12.9,12.9,0,0,0,3.67-.1,10.3,10.3,0,0,0,6.42-3.53,1.28,1.28,0,0,0-2-1.63C197.28,139,194.17,139.76,191.36,139.46Z"/><path class="cls-3" d="M247.94,215.15s1.31-.19,1.6.83-4,6.51-4.31,6.7-8.84-.89-8.84-.89-.46-.42-.36-.75a1.7,1.7,0,0,1,.41-.61Z"/><path class="cls-4" d="M234.1,129.51c-2.8-.5-5.94,0-8,2.08a1.28,1.28,0,1,1-1.83-1.79,10.24,10.24,0,0,1,6.68-3,12.93,12.93,0,0,1,3.67.19,1.29,1.29,0,0,1,1,1.52A1.27,1.27,0,0,1,234.1,129.51Z"/><path class="cls-3" d="M181.94,143.23l.58,4.36c.28,2.1-3.75,7.72-5.36,7.94l-1-7.67s-1.15-3.42-5.49-2.84c-15.36-13.54-16.84-38.07-4.3-52.57s43-19.36,48.53-18.29,12.26,9.38,12.26,9.38,4-4.64,8.46-3.1,22.06,26.16,22.94,32.78-10.19,21.45-10.19,21.45c-4.34.58-4.55,4.19-4.55,4.19l.63,4.76c-1.61.22-2.8-1.82-3.08-3.92l-.58-4.36c-14.16-4.16-21.84-21.45-21.84-21.45S204.18,143.53,181.94,143.23Z"/><path class="cls-11" d="M157.93,116.24a37.48,37.48,0,0,1,4.38-17.93c13.88,10.76,36.31,18,55-23.3a20,20,0,0,1,3.54,2.3C213.6,98.29,195.12,134.93,157.93,116.24Z"/><path class="cls-4" d="M181.94,143.23l.58,4.36c.28,2.1-3.75,7.72-5.36,7.94l-1-7.67s-1.15-3.42-5.49-2.84A37.69,37.69,0,0,1,159,125.33s26.3,18.27,58.66-15.69c0,0,14.8,23.08,36.46,16.2a99.55,99.55,0,0,1-5.77,8.83c-4.34.58-4.55,4.19-4.55,4.19l.63,4.76c-1.61.22-2.8-1.82-3.08-3.92l-.58-4.36c-14.16-4.16-21.84-21.45-21.84-21.45S204.18,143.53,181.94,143.23Z"/><path class="cls-5" d="M247.14,188.87l2.22.6s1.3-11.56,1.28-12.68a13.36,13.36,0,0,0-1.43-4.62c-.86-1.89-4-9-4.16-9.25s-2.19,1.53-1.28,4.66,2.46,7.35,2.45,8.26-2.09,8.91-2.09,8.91Z"/><path class="cls-6" d="M249.36,189a4.93,4.93,0,0,0-2.58-4.3c-2.22-1.34-7.46-5.49-8.58-6a3.88,3.88,0,0,0-3.72.58,65.14,65.14,0,0,0-6.41,4.65c-.88.92-3.08,6.57-3.35,7.17s1.94,1.13,3.71-.21c0,0-.93,1.86-1.22,2.49a46,46,0,0,0-.75,6.38c0,1,2.65.48,3.56-1.75,0,0-.15,1.61-.15,2.11s1.53.31,1.53.31,1.77,9.59,2.17,10.79,15.62,56,15.62,56l22-1.33s-24-53.74-24.19-54.53C245.67,204.54,249.39,194.65,249.36,189Z"/><path class="cls-5" d="M231.4,200.42l.1.5h0l0,.19v0h0v.11h0v.11h0v.11c.47,2.53,1.65,8.78,2,9.74s8.74,31.22,13.09,46.84a63.69,63.69,0,0,0,8.41-4.14s-17-39.67-17.44-41.23.54-2.8.21-3.22-1.65-1-2-2.16-1.13-5.12-.61-6.72c.39-1.23,1.69-1.08,2.26-1a13,13,0,0,0,1.67.42c.85.12.79-.4.79-.4a12.64,12.64,0,0,1,1.9-4.29c-.93-.5-2.38-2.91-2.38-2.91-.95-.41-1.7-.94-2.45-.42a18.79,18.79,0,0,0-2.82,2.87,29.54,29.54,0,0,1-.57,3.72C233.3,200,231.4,200.42,231.4,200.42Z"/><path class="cls-3" d="M132.88,351.71H292.56a4.66,4.66,0,0,0,4.46-4.8h0a4.65,4.65,0,0,0-4.46-4.79H132.88a4.65,4.65,0,0,0-4.46,4.79h0A4.65,4.65,0,0,0,132.88,351.71Z"/><path class="cls-3" d="M295.45,249.94H130a3.77,3.77,0,0,0-3.8,4.48l12.65,84a5.4,5.4,0,0,0,5.14,4.48H281.46a5.41,5.41,0,0,0,5.15-4.48l12.64-84A3.76,3.76,0,0,0,295.45,249.94Z"/><path class="cls-11" d="M291.77,253.91H133.66a3.6,3.6,0,0,0-3.63,4.28l12.08,80.26a5.17,5.17,0,0,0,4.92,4.27H278.4a5.16,5.16,0,0,0,4.92-4.27l12.09-80.26A3.61,3.61,0,0,0,291.77,253.91Z"/><path class="cls-3" d="M139,317.86l3.1,20.59a5.17,5.17,0,0,0,4.92,4.27H278.4a5.16,5.16,0,0,0,4.92-4.27l12.09-80.26a3.61,3.61,0,0,0-2.34-4.07C275,285.34,230.49,336.48,139,317.86Z"/><path class="cls-3" d="M212.72,321.39c9.68,0,17.58-6.6,17.58-14.68S222.4,292,212.72,292s-17.59,6.59-17.59,14.68S203,321.39,212.72,321.39Z"/><path class="cls-2" d="M212.72,295.55a14,14,0,0,1,11.53,5.53L203.81,315a10.41,10.41,0,0,1-4.46-8.31c0-6.16,6-11.16,13.37-11.16Zm10.85,17.66-6.14-3.38-10.24,7a15.61,15.61,0,0,0,5.53,1A14.27,14.27,0,0,0,223.57,313.21Z"/><path class="cls-4" d="M230.51,138.76h0a2.85,2.85,0,0,0-2.37,3.26l.59,3.68a2.86,2.86,0,0,0,3.26,2.37h0a2.86,2.86,0,0,0,2.37-3.27l-.59-3.67A2.85,2.85,0,0,0,230.51,138.76Z"/><path class="cls-4" d="M196.33,143.94h0A2.85,2.85,0,0,0,194,147.2l.58,3.68a2.87,2.87,0,0,0,3.27,2.36h0a2.86,2.86,0,0,0,2.37-3.26l-.59-3.68A2.84,2.84,0,0,0,196.33,143.94Z"/><path class="cls-5" d="M227.51,164.07a1,1,0,0,1,.2,1.43,1,1,0,0,1-1.41.08s-3.42-3-9.5,2.61a1,1,0,0,1-1.43-.11,1,1,0,0,1,0-1.43C222.7,159.9,227.5,164.05,227.51,164.07Z"/><path class="cls-11" d="M248.76,215.34a.64.64,0,0,1,.51.62c.07.56-3.34,5-12.86,5.32,0,0-.23-.07-.27-.22s.12-.31.12-.31l0-.17a.81.81,0,0,0-.34.54c0,.29,1.4,6.17,1.69,7.65s3.17,1.14,5.62.55,8.29-2.64,9.82-5.8a3.09,3.09,0,0,0,0-1.48c-.24-.68-3.2-6.16-3.35-6.49a.91.91,0,0,0-1-.43Z"/><path class="cls-3" d="M240.93,220.76a27.46,27.46,0,0,1-4.52.52s-.23-.07-.27-.22.12-.31.12-.31l0-.17a.81.81,0,0,0-.34.54c0,.29,1.4,6.17,1.69,7.65s3.17,1.14,5.62.55c.35-.09.77-.2,1.23-.34l-3.48-8.22Z"/><path class="cls-3" d="M80.67,356.26H344.44a6,6,0,0,1,6,6h0a6,6,0,0,1-6,6H80.67a6,6,0,0,1-6-6h0A6,6,0,0,1,80.67,356.26Z"/><rect class="cls-12" x="60.16" y="346.91" width="304.78" height="15.37" rx="7.68"/><rect class="cls-13" x="243.27" y="346.91" width="15.99" height="15.37"/><rect class="cls-13" x="267.56" y="346.91" width="8.31" height="15.37"/><rect class="cls-13" x="284.59" y="346.91" width="4.15" height="15.37"/><rect class="cls-13" x="302.96" y="346.91" width="17.88" height="15.37"/><rect class="cls-13" x="334.33" y="346.91" width="8.94" height="15.37"/><rect class="cls-14" x="63.9" y="349.41" width="149.8" height="9.14" rx="4.57"/><polygon class="cls-15" points="161.73 35.53 165.02 54.46 207.69 20.14 163.13 31.09 161.73 35.53"/><path class="cls-16" d="M165,54.46l16.46-13.24a25.66,25.66,0,0,1,.76-3.35l-13.82,3.71Z"/><polygon class="cls-2" points="207.69 20.14 149.98 30.81 161.73 35.53 207.69 20.14"/><polygon class="cls-2" points="207.69 20.14 181.76 54.59 168.42 41.58 207.69 20.14"/><path class="cls-17" d="M59.62,197.43a75.27,75.27,0,0,1,17.48-2.05h0a15.28,15.28,0,0,0,15.24-15.24h0a15.22,15.22,0,0,0-.15-2.15h24.1a6.64,6.64,0,0,1,6.61,6.61v46.64a.74.74,0,0,1-1.26.52l-11.27-11.27H66.23a6.62,6.62,0,0,1-6.61-6.61Z"/><path class="cls-18" d="M63.72,175.48h50.05a6.62,6.62,0,0,1,6.61,6.61v46.63a.71.71,0,0,1-.45.68.72.72,0,0,1-.81-.16L107.86,218H63.72a6.64,6.64,0,0,1-6.62-6.61V182.09A6.63,6.63,0,0,1,63.72,175.48Z"/><path class="cls-2" d="M95.69,187.4l8.29,0a7.54,7.54,0,0,1,5.4,2.34,8.08,8.08,0,0,1,2.23,5.57v0s0,.07,0,.1a7.89,7.89,0,0,1-2.25,5.42,7.51,7.51,0,0,1-5.4,2.31h-.12l-8.19,0L81,210.49a2,2,0,0,1-2.68-.87,2.07,2.07,0,0,1-.24-1l.1-26.82a2,2,0,0,1,.24-1,2,2,0,0,1,.7-.75,1.9,1.9,0,0,1,1-.32,2,2,0,0,1,1,.21l.08,0,14.47,7.39Zm8.29,2.11-8.54,0a1,1,0,0,1-.47-.12l-14.69-7.5-.09,26.73,14.71-7.37a1.06,1.06,0,0,1,.5-.13l8.44,0H104a5.47,5.47,0,0,0,3.91-1.67,5.85,5.85,0,0,0,1.66-4v-.11a5.93,5.93,0,0,0-1.64-4.12A5.42,5.42,0,0,0,104,189.51Z"/><path class="cls-2" d="M105.82,201.88v9.35a3.35,3.35,0,0,1-3.34,3.34h0a3.34,3.34,0,0,1-3.33-3.34v-9.09l4.78,0A6.27,6.27,0,0,0,105.82,201.88Z"/><rect class="cls-19" x="96.99" y="188.45" width="1.56" height="13.7"/><rect class="cls-19" x="102" y="188.45" width="1.56" height="13.7"/><path class="cls-2" d="M75.1,190.8a1,1,0,1,1-.35,2l-8-1.39a1,1,0,0,1,.35-2.05l8,1.39Zm-.63,12.91a1,1,0,0,1,.91,1.87l-5.27,2.55a1,1,0,0,1-.91-1.88l5.27-2.54Zm.91-18.85a1,1,0,0,1-.91,1.88l-6-2.91a1,1,0,0,1,.9-1.88l6,2.91Zm-.63,12.74a1,1,0,0,1,.35,2.05l-8,1.39a1,1,0,1,1-.35-2Z"/><path class="cls-17" d="M342.56,56.31H290.48a6.89,6.89,0,0,0-6.87,6.87V111.7a.76.76,0,0,0,1.31.54l11.72-11.72h45.92a6.89,6.89,0,0,0,6.88-6.87V63.18A6.89,6.89,0,0,0,342.56,56.31Z"/><path class="cls-18" d="M339.57,56.31H287.5a6.89,6.89,0,0,0-6.88,6.87V111.7a.76.76,0,0,0,1.31.54l11.72-11.72h45.92a6.89,6.89,0,0,0,6.88-6.87V63.18A6.89,6.89,0,0,0,339.57,56.31Z"/><path class="cls-20" d="M300.53,77.47a5,5,0,1,0-4.95-5A5,5,0,0,0,300.53,77.47Z"/><path class="cls-20" d="M300.53,79h0a7,7,0,0,1,7,7v6.85a.8.8,0,0,1-.79.79H294.29a.79.79,0,0,1-.78-.79V86.07A7,7,0,0,1,300.53,79Z"/><path class="cls-20" d="M326.54,77.47a5,5,0,1,0-5-5A5,5,0,0,0,326.54,77.47Z"/><path class="cls-20" d="M326.54,79h0a7,7,0,0,1,7,7v6.85a.79.79,0,0,1-.78.79H320.3a.8.8,0,0,1-.79-.79V86.07A7,7,0,0,1,326.54,79Z"/><path class="cls-2" d="M313.54,74.18a6,6,0,1,0-6-6A6,6,0,0,0,313.54,74.18Z"/><path class="cls-2" d="M313.54,76.07h0A8.48,8.48,0,0,1,322,84.52v8.24a1,1,0,0,1-.95.95H306a1,1,0,0,1-.95-.95V84.52A8.48,8.48,0,0,1,313.54,76.07Z"/><path class="cls-2" d="M386,201.71a17.69,17.69,0,1,1-12.51,5.18A17.61,17.61,0,0,1,386,201.71Zm15.78,18.63h-7.22a35.71,35.71,0,0,1-.6,5.74,21.48,21.48,0,0,1,5.3,1.94,15.71,15.71,0,0,0,2.52-7.68Zm-9.11,0h-5.72v4.87a35.62,35.62,0,0,1,5.16.49,32.06,32.06,0,0,0,.56-5.36Zm-7.61,0h-5.72a32.06,32.06,0,0,0,.56,5.36,35.62,35.62,0,0,1,5.16-.49v-4.87Zm-7.61,0h-7.23a15.82,15.82,0,0,0,2.53,7.68,21.34,21.34,0,0,1,5.3-1.94,34.61,34.61,0,0,1-.6-5.74Zm-7.23-1.88h7.23a36.27,36.27,0,0,1,.44-4.88,20.77,20.77,0,0,1-5.55-2.13,15.74,15.74,0,0,0-2.12,7Zm9.52-4.49a33.74,33.74,0,0,0-.4,4.49H385v-4a36.6,36.6,0,0,1-5.32-.53Zm12.52,0a36.32,36.32,0,0,1-5.31.53v4h5.72a33.75,33.75,0,0,0-.41-4.49Zm2.3,4.49h7.22a15.61,15.61,0,0,0-2.11-7,20.63,20.63,0,0,1-5.56,2.13,34.72,34.72,0,0,1,.45,4.88Zm-7.61-14.69v8.84a34.43,34.43,0,0,0,5-.49,22.37,22.37,0,0,0-1.37-4.17c-.67-1.48-1.91-3.57-3.59-4.18Zm0,23.32V235c1.68-.62,2.92-2.71,3.59-4.19a20.25,20.25,0,0,0,1.15-3.31,35.7,35.7,0,0,0-4.74-.45ZM385,235v-7.95a36,36,0,0,0-4.75.45,21.28,21.28,0,0,0,1.16,3.31c.67,1.48,1.91,3.58,3.59,4.19Zm0-22.43v-8.84c-1.68.61-2.92,2.7-3.59,4.18a21.66,21.66,0,0,0-1.37,4.17,34.43,34.43,0,0,0,5,.49Zm-11.68-2.73a19.34,19.34,0,0,0,4.88,1.85,23.07,23.07,0,0,1,1.5-4.57,13.82,13.82,0,0,1,1.74-2.92,15.88,15.88,0,0,0-6.67,4,17.58,17.58,0,0,0-1.45,1.66Zm20.37,1.85a19.27,19.27,0,0,0,4.87-1.85,16.16,16.16,0,0,0-1.44-1.66,15.94,15.94,0,0,0-6.67-4,14.26,14.26,0,0,1,1.74,2.92,23.74,23.74,0,0,1,1.5,4.57Zm4.37,17.82a19.69,19.69,0,0,0-4.58-1.63,22.94,22.94,0,0,1-1.29,3.71,13.69,13.69,0,0,1-1.75,2.93,15.91,15.91,0,0,0,6.68-4c.33-.33.64-.67.94-1Zm-19.66-1.63a19.62,19.62,0,0,0-4.57,1.63,13,13,0,0,0,.94,1,15.88,15.88,0,0,0,6.67,4,14.31,14.31,0,0,1-1.75-2.92A23.39,23.39,0,0,1,378.43,227.92Z"/><path class="cls-2" d="M39,120.78a6.36,6.36,0,0,1,2.54-2.65,3.94,3.94,0,0,0,1.92-2.58,16.52,16.52,0,0,0,.39-4.33,1,1,0,0,1,1-1h1.69a1.7,1.7,0,0,1,.51.08A3.67,3.67,0,0,1,48.86,112a6.41,6.41,0,0,1,.8,3.14,7.15,7.15,0,0,1-.33,2.15,5.61,5.61,0,0,0-.37,2.37.92.92,0,0,0,.29,0H53.5a5.44,5.44,0,0,1,1.45.18,3.45,3.45,0,0,1,1.71,1,3.31,3.31,0,0,1,.77,2.24,6.13,6.13,0,0,1-.15,1.28c.61,1.58.73,3.54-.51,4.84a3.94,3.94,0,0,1-1.36,3.52,4.16,4.16,0,0,1-4.09,3h-7.8a6.59,6.59,0,0,1-3.74-1.52,2.22,2.22,0,0,1-.58,1l0,0a2.18,2.18,0,0,1-1.51.6H34.1a2.19,2.19,0,0,1-2.2-2.2v-11.2a2.21,2.21,0,0,1,.66-1.57l0,0a2.18,2.18,0,0,1,1.51-.6h3.55a2.16,2.16,0,0,1,1.32.44Zm.89,11c.89.91,2.39,2.09,3.66,2.09h7.8A2.3,2.3,0,0,0,53.6,132a1,1,0,0,1,.52-.69c.72-.36.74-1.54.64-2.2a1,1,0,0,1,.38-1c.94-.7.63-2.2.22-3.1a1,1,0,0,1-.08-.72,4.51,4.51,0,0,0,.17-1.1,1.41,1.41,0,0,0-.28-.93,1.51,1.51,0,0,0-.74-.41,3.64,3.64,0,0,0-.93-.11H49.25a2,2,0,0,1-2.11-1.24,6.24,6.24,0,0,1,.3-3.74,5.18,5.18,0,0,0,.24-1.56,4.37,4.37,0,0,0-.54-2.17,2.45,2.45,0,0,0-.68-.79H45.8a15.65,15.65,0,0,1-.46,3.87,5.85,5.85,0,0,1-2.89,3.79,6,6,0,0,0-2.59,4.3v7.6Zm-2.21-9.45H34.1a.18.18,0,0,0-.13,0l0,0a.18.18,0,0,0-.07.15v11.2a.21.21,0,0,0,.07.16.2.2,0,0,0,.15.06h3.55a.17.17,0,0,0,.13,0l0,0a.25.25,0,0,0,.06-.16v-11.2a.21.21,0,0,0-.22-.22Z"/><rect class="cls-19" x="319.86" y="38.88" width="5.63" height="5.63" rx="1.31"/><rect class="cls-21" x="330.28" y="38.88" width="5.63" height="5.63" rx="1.31"/><rect class="cls-19" x="340.71" y="38.88" width="5.63" height="5.63" rx="1.31"/><rect class="cls-21" x="351.13" y="38.88" width="5.63" height="5.63" rx="1.31"/><rect class="cls-19" x="361.55" y="38.88" width="5.63" height="5.63" rx="1.31"/><rect class="cls-19" x="371.97" y="38.88" width="5.63" height="5.63" rx="1.31"/><rect class="cls-19" x="382.39" y="38.88" width="5.63" height="5.63" rx="1.31"/><rect class="cls-19" x="351.5" y="27.52" width="5.63" height="5.63" rx="1.31"/><rect class="cls-21" x="361.93" y="27.52" width="5.63" height="5.63" rx="1.31"/><rect class="cls-19" x="372.35" y="27.52" width="5.63" height="5.63" rx="1.31"/><rect class="cls-19" x="361.55" y="51.09" width="5.63" height="5.63" rx="1.31"/><rect class="cls-21" x="371.97" y="51.09" width="5.63" height="5.63" rx="1.31"/><path class="cls-2" d="M110,130.46h0a7.73,7.73,0,0,1,10.92,0l.74.74.74-.74a7.73,7.73,0,0,1,10.92,0h0a7.73,7.73,0,0,1,0,10.92l-.74.74L121.64,153l-10.92-10.92-.74-.74A7.75,7.75,0,0,1,110,130.46Z"/><path class="cls-22" d="M95.24,258.74c-8-8.16-14,2.2-13.14,12.6.79,9.86,9.29,43.69,7.71,57.92h3.26C101,311,105.49,269.18,95.24,258.74Z"/><path class="cls-23" d="M91.87,329.26c7.75-28.76-2.06-68.52-2.09-68.66a.46.46,0,0,0-.56-.34.47.47,0,0,0-.34.56c0,.13,9.86,39.94,2.05,68.44Z"/><path class="cls-2" d="M75.48,276.71C67,272.24,64.91,282,68.2,290.07c2.73,6.69,14.77,26.48,19.33,39.19h4.29C92.18,311.69,85.44,282,75.48,276.71Z"/><path class="cls-24" d="M90.25,329.26c-2.79-23.76-18.59-49.59-18.65-49.68a.38.38,0,0,0-.66.39c.06.1,15.76,25.76,18.55,49.29Z"/><path class="cls-25" d="M111.15,288c8.18-3.57,9.48,5.67,5.85,13-2.46,4.93-11.33,17.57-17.29,28.31H92.89C95.22,313,102.7,291.68,111.15,288Z"/><path class="cls-26" d="M95.33,329.26c5.81-19.69,19.18-38.25,19.24-38.33a.36.36,0,0,1,.58.42c-.05.07-13.29,18.44-19.08,37.91Z"/><rect class="cls-27" x="77.1" y="321.59" width="31.36" height="10.06" rx="1.54"/><polygon class="cls-28" points="83.49 327.27 102.07 327.27 106.92 331.65 102.96 346.91 92.78 346.91 82.6 346.91 78.64 331.65 83.49 327.27"/><polygon class="cls-29" points="106.92 331.65 106.11 334.79 79.45 334.79 78.64 331.65 106.92 331.65"/><circle class="cls-21" cx="241.47" cy="38.97" r="2.63"/><circle class="cls-21" cx="284.28" cy="189.57" r="2.63"/><circle class="cls-21" cx="337.61" cy="299.23" r="2.63"/><circle class="cls-21" cx="31.16" cy="278.2" r="2.63"/><path class="cls-17" d="M346.62,121.6A2.63,2.63,0,1,0,344,119,2.64,2.64,0,0,0,346.62,121.6Z"/><circle class="cls-21" cx="110.02" cy="101.69" r="2.63"/><circle class="cls-19" cx="103.64" cy="252.66" r="2.63"/><circle class="cls-19" cx="354.89" cy="239.52" r="2.63"/><path class="cls-2" d="M302.31,131a2.63,2.63,0,1,0-2.63-2.62A2.63,2.63,0,0,0,302.31,131Z"/><circle class="cls-19" cx="280.9" cy="31.09" r="2.63"/><circle class="cls-19" cx="386.81" cy="97.18" r="2.63"/><path class="cls-30" d="M344.85,321.61a8.6,8.6,0,1,1-6.07,2.52,8.57,8.57,0,0,1,6.07-2.52Zm3.71,4.89a5.25,5.25,0,0,0-8.95,3.71,5.24,5.24,0,1,0,8.95-3.71Z"/><path class="cls-7" d="M331.17,347h0a13.52,13.52,0,0,0,13.48-13.48V319.51a1.19,1.19,0,0,0-1.19-1.19H318.88a1.19,1.19,0,0,0-1.19,1.19v14.05A13.52,13.52,0,0,0,331.17,347Z"/><path class="cls-30" d="M340,331.87a13.24,13.24,0,0,1-.65,4.14,14.61,14.61,0,0,1-.89,2.12,13.7,13.7,0,0,1-6.78,6.2,13.42,13.42,0,0,1-5.16,1,13.24,13.24,0,0,1-2.2-.18,13.4,13.4,0,0,0,14.91-.84,13.5,13.5,0,0,0,3.62-4.12,12.76,12.76,0,0,0,1-2,13.53,13.53,0,0,0,.81-4.6V319.51a1.19,1.19,0,0,0-1.19-1.19H340v13.55Z"/><path class="cls-7" d="M319.49,347h23.36a1.81,1.81,0,0,0,1.8-1.8h0a1.81,1.81,0,0,0-1.8-1.8H319.49a1.81,1.81,0,0,0-1.8,1.8h0A1.81,1.81,0,0,0,319.49,347Z"/><rect class="cls-31" x="319.74" y="320.88" width="4.54" height="12.67" rx="2.27"/><path class="cls-2" d="M319.66,301.7h10.27a1.43,1.43,0,0,0,1.42-1.42h0a1.43,1.43,0,0,0-1.42-1.42H316.11a3.7,3.7,0,0,1-3.7-3.7h0a3.71,3.71,0,0,1,3.7-3.7h35.95a3.72,3.72,0,0,1,3.7,3.7h0a3.71,3.71,0,0,1-3.7,3.7H339.52a1.43,1.43,0,0,0-1.42,1.42h0a1.43,1.43,0,0,0,1.42,1.42h4.82a2.86,2.86,0,0,1,2.86,2.85h0a2.87,2.87,0,0,1-2.86,2.86h-8a5.68,5.68,0,0,0-5.67,5.67v2.61a1.35,1.35,0,0,1-1.34,1.34h0a1.34,1.34,0,0,1-1.34-1.34v-4.95a3.34,3.34,0,0,0-3.33-3.33h-5a2.87,2.87,0,0,1-2.86-2.86h0A2.86,2.86,0,0,1,319.66,301.7Z"/></g></g></svg>