<svg xmlns="http://www.w3.org/2000/svg" xmlns:xlink="http://www.w3.org/1999/xlink" viewBox="0 0 500 345.37"><defs><style>.cls-1{fill:none;}.cls-2{fill:#ebebeb;}.cls-3{fill:#e0e0e0;}.cls-4{fill:#fafafa;}.cls-5{fill:#e6e6e6;}.cls-11,.cls-6{fill:#fff;}.cls-7{fill:#407bff;}.cls-8{clip-path:url(#clip-path);}.cls-9{fill:#263238;}.cls-10{fill:#ffb573;}.cls-11,.cls-12{opacity:0.2;}.cls-13{fill:#ed893e;}.cls-14{clip-path:url(#clip-path-2);}.cls-15{fill:#7f3e3b;}.cls-16{opacity:0.5;}.cls-17{fill:#630f0f;}.cls-18{clip-path:url(#clip-path-3);}.cls-19{fill:#ff8b7b;}.cls-20{fill:#ff5652;}</style><clipPath id="clip-path"><circle class="cls-1" cx="323.66" cy="85.03" r="54.82"/></clipPath><clipPath id="clip-path-2"><circle class="cls-1" cx="150.92" cy="167.38" r="54.82"/></clipPath><clipPath id="clip-path-3"><circle class="cls-1" cx="323.66" cy="249.72" r="54.82"/></clipPath></defs><title>Ativo 2</title><g id="Camada_2" data-name="Camada 2"><g id="Background_Complete" data-name="Background Complete"><rect class="cls-2" y="327.45" width="500" height="0.25"/><rect class="cls-2" x="78.54" y="335.84" width="33.12" height="0.25"/><rect class="cls-2" x="133.33" y="343.05" width="30.17" height="0.25"/><rect class="cls-2" x="56.85" y="345.12" width="38.25" height="0.25"/><rect class="cls-2" x="434" y="344.58" width="15.9" height="0.25"/><rect class="cls-2" x="391.47" y="344.58" width="39.32" height="0.25"/><rect class="cls-2" x="250" y="335.71" width="30.33" height="0.25"/><rect class="cls-2" x="284.67" y="335.71" width="72.1" height="0.25"/><path class="cls-2" d="M237,282.85H43.91a5.71,5.71,0,0,1-5.7-5.71V5.71A5.71,5.71,0,0,1,43.91,0H237a5.71,5.71,0,0,1,5.71,5.71V277.14A5.71,5.71,0,0,1,237,282.85ZM43.91.25a5.46,5.46,0,0,0-5.45,5.46V277.14a5.46,5.46,0,0,0,5.45,5.46H237a5.47,5.47,0,0,0,5.46-5.46V5.71A5.47,5.47,0,0,0,237,.25Z"/><path class="cls-2" d="M453.31,282.85H260.21a5.72,5.72,0,0,1-5.71-5.71V5.71A5.72,5.72,0,0,1,260.21,0h193.1A5.71,5.71,0,0,1,459,5.71V277.14A5.71,5.71,0,0,1,453.31,282.85ZM260.21.25a5.47,5.47,0,0,0-5.46,5.46V277.14a5.47,5.47,0,0,0,5.46,5.46h193.1a5.47,5.47,0,0,0,5.46-5.46V5.71A5.47,5.47,0,0,0,453.31.25Z"/><path class="cls-3" d="M200.59,22.65H85.5A14.66,14.66,0,0,0,70.88,37.27V56.18a2.63,2.63,0,0,0-1.83,2.48V90.49A2.63,2.63,0,0,0,70.88,93V103.8a2,2,0,0,0-1.83,2v17a2,2,0,0,0,1.83,2V312.83A14.66,14.66,0,0,0,85.5,327.45H200.59a14.66,14.66,0,0,0,14.61-14.62V37.27A14.66,14.66,0,0,0,200.59,22.65Z"/><rect class="cls-2" x="75.89" y="22.65" width="144.32" height="304.79" rx="14.62" transform="translate(296.1 350.1) rotate(180)"/><path class="cls-3" d="M141.54,313.49a6.51,6.51,0,1,0,6.51-6.51A6.51,6.51,0,0,0,141.54,313.49Z"/><rect class="cls-4" x="75.89" y="39.45" width="144.32" height="261.93" transform="translate(296.1 340.83) rotate(180)"/><path class="cls-5" d="M184,200.94H112.81a13.68,13.68,0,0,0-13.63,13.62v36.78A13.68,13.68,0,0,0,112.81,265h52.26l-.39,12.87L177.88,265H184a13.67,13.67,0,0,0,13.62-13.62V214.56A13.67,13.67,0,0,0,184,200.94Zm-72.84,15.67A3.82,3.82,0,0,1,115,212.8h16.39a3.79,3.79,0,0,1,0,7.57H115A3.81,3.81,0,0,1,111.19,216.61ZM180,252.2H151.63a3.77,3.77,0,0,1,0-7.53H180a3.77,3.77,0,0,1,0,7.53Zm0-15.92H118.81a3.76,3.76,0,0,1,0-7.52H180a3.76,3.76,0,1,1,0,7.52Zm0-15.91H143.77a3.79,3.79,0,0,1,0-7.57H180a3.79,3.79,0,0,1,0,7.57Z"/><path class="cls-5" d="M147.87,73.05a40.78,40.78,0,0,0-9.31,80.48l9.31,11.85,9.31-11.85h0a40.78,40.78,0,0,0-9.31-80.48Zm0,57.77a17,17,0,1,1,17-17A17,17,0,0,1,147.87,130.82Z"/><path class="cls-3" d="M164.61,30.38a2.3,2.3,0,1,0-2.3,2.3A2.3,2.3,0,0,0,164.61,30.38Z"/><path class="cls-3" d="M154.36,28.08H135.25a2.31,2.31,0,0,0-2.3,2.3h0a2.3,2.3,0,0,0,2.3,2.3h19.11a2.3,2.3,0,0,0,2.3-2.3h0A2.31,2.31,0,0,0,154.36,28.08Z"/><rect class="cls-3" x="273.6" y="20.87" width="169.33" height="306.57" rx="12" transform="translate(716.52 348.32) rotate(180)"/><rect class="cls-2" x="270.51" y="20.87" width="169.33" height="306.57" rx="12" transform="translate(710.36 348.32) rotate(180)"/><rect class="cls-4" x="213.18" y="100.78" width="284" height="153.33" rx="4" transform="translate(532.63 -177.73) rotate(90)"/><path class="cls-5" d="M381.76,187.3a22.45,22.45,0,0,0-17.87,8.84L342.83,183.5a22.5,22.5,0,0,0,0-18.68l21.06-12.64a22.48,22.48,0,1,0-4.62-13.65,22.23,22.23,0,0,0,2,9.34l-21.07,12.64a22.48,22.48,0,1,0,0,27.3l21.07,12.64a22.48,22.48,0,1,0,20.45-13.15Z"/><circle class="cls-6" cx="355.18" cy="28.64" r="3.82"/></g><g id="Characters"><path class="cls-7" d="M323.65,259.72a10,10,0,0,1-4.3-1L146.61,176.4a10,10,0,0,1,0-18.05L319.35,76A10,10,0,0,1,328,94.06L174.15,167.38,328,240.69a10,10,0,0,1-4.31,19Z"/><path class="cls-7" d="M376.43,136.14l-.72-.7a72.36,72.36,0,0,0,8-9.78l.83.56A73.78,73.78,0,0,1,376.43,136.14Z"/><circle class="cls-7" cx="323.66" cy="85.03" r="70"/><circle class="cls-6" cx="323.66" cy="85.03" r="54.82"/><g class="cls-8"><path class="cls-9" d="M325.13,115.77s19.67,4.11,30.37,2.44,9.46-16,1-23.16-6.5-5.5-4.5-13-2.5-13.5-11-13.84-.28-11-9-22.91-24.26-2.92-25.38,2.41c-4.88.17-10,8.12-6.35,15.31s-1,9.07-3.86,17.72,8.57,10.31,6,16.14S299.63,122,325.13,115.77Z"/><path class="cls-10" d="M306,101c-.18,3-.53,5.81-.93,8.69s-.94,5.69-1.56,8.52-1.3,5.64-2.19,8.43a77.82,77.82,0,0,1-3,8.29l-.92,2c-.13.31-.37.76-.57,1.14s-.43.74-.65,1.11a31.85,31.85,0,0,1-2.84,3.8,65.87,65.87,0,0,1-6.24,6.26,115.74,115.74,0,0,1-13.67,10.35L270.67,156c1.95-1.9,3.94-3.85,5.87-5.8s3.83-3.93,5.63-5.95a74,74,0,0,0,5-6.13,27.66,27.66,0,0,0,2-3.06c.12-.25.26-.5.36-.73s.19-.41.32-.75l.69-1.83a102.73,102.73,0,0,0,4.14-15.41c.53-2.64.9-5.32,1.3-8s.69-5.43.93-8Z"/><path class="cls-7" d="M299.8,90c-3.69.94-6.27,16.13-6.27,16.13l10.17,6.92s9.75-15.32,6.91-19.38C307.66,89.48,305.19,88.67,299.8,90Z"/><path class="cls-11" d="M299.8,90c-3.69.94-6.27,16.13-6.27,16.13l10.17,6.92s9.75-15.32,6.91-19.38C307.66,89.48,305.19,88.67,299.8,90Z"/><polygon class="cls-12" points="300.14 93.44 297.3 108.75 303.02 112.62 300.14 93.44"/><path class="cls-10" d="M272.35,154.7l-10.14.73,6.06,6.8s5.6-1.29,6.58-4.88Z"/><polygon class="cls-10" points="256.6 159.03 260.76 165.43 268.26 162.23 262.21 155.43 256.6 159.03"/><path class="cls-7" d="M299.8,90s-4.26,1.51,4.28,54.06h36.38c-.61-14.81-.63-23.94,6.44-54.32a108.19,108.19,0,0,0-15.44-2,115.17,115.17,0,0,0-16.52,0C307.85,88.4,299.8,90,299.8,90Z"/><path class="cls-11" d="M299.8,90s-4.26,1.51,4.28,54.06h36.38c-.61-14.81-.63-23.94,6.44-54.32a108.19,108.19,0,0,0-15.44-2,115.17,115.17,0,0,0-16.52,0C307.85,88.4,299.8,90,299.8,90Z"/><path class="cls-10" d="M329.82,69.15c-1,5.32-2.08,15,1.64,18.6,0,0-1.46,5.39-11.33,5.39-10.86,0-5.19-5.39-5.19-5.39,5.93-1.41,5.77-5.81,4.74-9.94Z"/><path class="cls-10" d="M331.45,87.75a115,115,0,0,0-16.51,0l-1.08.11c-2.22,2.59.51,5.87,2.82,8.19,0,0,13.18-2,16.95-8.16Z"/><path class="cls-12" d="M325.69,72.68l-6,5.12a17.93,17.93,0,0,1,.51,2.94c2.73,0,5.11-1.91,6.07-5.06C326.61,74.54,325.88,73.24,325.69,72.68Z"/><path class="cls-10" d="M330.12,55c1.88,8.69,2.87,12.32-.21,17.92-4.63,8.42-15.71,8.83-20.15.88-4-7.15-6.4-20.16,1-25.91A12.12,12.12,0,0,1,330.12,55Z"/><path class="cls-9" d="M317.14,61.12c.2.7,0,1.37-.46,1.49s-1-.33-1.18-1,0-1.37.47-1.49S317,60.43,317.14,61.12Z"/><path class="cls-9" d="M309.28,63.34c.2.69,0,1.36-.46,1.49s-1-.33-1.18-1,0-1.36.47-1.49S309.09,62.64,309.28,63.34Z"/><path class="cls-9" d="M308.32,62.29h-1.81S307.74,63.34,308.32,62.29Z"/><path class="cls-13" d="M312.06,63.91A19.38,19.38,0,0,1,310.83,69a3.1,3.1,0,0,0,2.61-.23Z"/><path class="cls-9" d="M318,70.46a6.91,6.91,0,0,1-1,.37.21.21,0,0,1-.26-.15.2.2,0,0,1,.14-.26A5.73,5.73,0,0,0,320.77,67a.21.21,0,0,1,.26-.14.22.22,0,0,1,.14.27A5.91,5.91,0,0,1,318,70.46Z"/><path class="cls-9" d="M308.46,49c-1.9,2.16,18.78,13.3,23,11.29s.42-13.13-4.91-15.54S314.21,42.46,308.46,49Z"/><path class="cls-10" d="M334.64,62.2a6.54,6.54,0,0,1-2.27,4.41c-1.75,1.45-3.56.11-3.85-2-.26-1.92.33-5,2.46-5.63A2.92,2.92,0,0,1,334.64,62.2Z"/><path class="cls-9" d="M319.85,58.63a.41.41,0,0,1-.49-.1c-1.33-1.44-3.84-1.14-3.86-1.13A.43.43,0,0,1,315,57a.43.43,0,0,1,.37-.48c.12,0,3-.36,4.59,1.41a.43.43,0,0,1,0,.6Z"/><path class="cls-9" d="M305.9,60.37a.43.43,0,0,1-.42,0,.42.42,0,0,1-.1-.59,4.22,4.22,0,0,1,3.37-1.89.44.44,0,0,1,.42.44.43.43,0,0,1-.44.41,3.38,3.38,0,0,0-2.66,1.53A.39.39,0,0,1,305.9,60.37Z"/><path class="cls-10" d="M350.83,99.36a140.18,140.18,0,0,1,5.39,15.72,90.05,90.05,0,0,1,3.24,16.59c.06.72.08,1.47.12,2.21l0,.55c0,.19,0,.34,0,.63l0,.77-.07.68a26.08,26.08,0,0,1-1,4.6,72.34,72.34,0,0,1-3,7.9,138,138,0,0,1-7.58,14.59l-4.1-1.95c1.75-5,3.51-10.11,5.08-15.12.77-2.5,1.5-5,2-7.43a21.06,21.06,0,0,0,.49-3.31v-.33l0-.24c0-.05,0-.23,0-.38l-.05-.45c-.07-.61-.12-1.21-.21-1.82a103.68,103.68,0,0,0-3.57-14.94c-1.54-5-3.31-10-5.14-14.81Z"/><path class="cls-7" d="M346.9,89.78c3.65,1.11,8,13.66,8,13.66l-14.13,10.11s-5.16-10.48-3.63-15.19C338.76,93.46,342.74,88.52,346.9,89.78Z"/><path class="cls-11" d="M346.9,89.78c3.65,1.11,8,13.66,8,13.66l-14.13,10.11s-5.16-10.48-3.63-15.19C338.76,93.46,342.74,88.52,346.9,89.78Z"/><path class="cls-9" d="M316.18,60.08h-1.81S315.6,61.13,316.18,60.08Z"/><path class="cls-9" d="M341,142l.93,3.26c.13.25-.17.51-.59.51H303.9c-.32,0-.6-.16-.62-.37L303,142.1c0-.22.27-.41.63-.41h36.83A.66.66,0,0,1,341,142Z"/><path class="cls-7" d="M336.05,146.08h1c.2,0,.35-.1.33-.23l-.46-4.22c0-.13-.19-.23-.38-.23h-1c-.19,0-.34.1-.33.23l.46,4.22C335.68,146,335.86,146.08,336.05,146.08Z"/><path class="cls-7" d="M306.68,146.08h1c.2,0,.35-.1.33-.23l-.46-4.22c0-.13-.18-.23-.38-.23h-1c-.19,0-.34.1-.33.23l.46,4.22C306.31,146,306.48,146.08,306.68,146.08Z"/><path class="cls-7" d="M321.36,146.08h1c.2,0,.35-.1.33-.23l-.46-4.22c0-.13-.18-.23-.38-.23h-1c-.19,0-.34.1-.33.23l.46,4.22C321,146,321.17,146.08,321.36,146.08Z"/><path class="cls-10" d="M343.92,160.79l-7,6.69,9.05,1s3.3-4.71,1.62-8Z"/><polygon class="cls-10" points="335.84 174.93 343.47 175.34 345.98 168.46 336.93 167.48 335.84 174.93"/></g><path class="cls-7" d="M101.69,114.19l-.68-.73a73.6,73.6,0,0,1,16.52-11.56l.46.89A73.05,73.05,0,0,0,101.69,114.19Z"/><path class="cls-7" d="M94,122.49l-.78-.62c1.23-1.56,2.54-3.09,3.9-4.55l.73.69C96.53,119.44,95.24,121,94,122.49Z"/><circle class="cls-7" cx="150.92" cy="167.38" r="70"/><circle class="cls-6" cx="150.92" cy="167.38" r="54.82"/><g class="cls-14"><path class="cls-15" d="M175.64,182.24c2.58,6,5.25,12,7.94,18q2,4.49,4.11,8.9t4.3,8.68c.75,1.39,1.48,2.83,2.27,4.14l.59,1,.29.5a.47.47,0,0,0-.11-.1c-.13-.09,0,.07.26.25a9.77,9.77,0,0,0,3.15,1.06,38.93,38.93,0,0,0,4.31.55c3,.21,6.23.21,9.44.11l4.85-.2,4.83-.32,1.25,5.82a83.35,83.35,0,0,1-20.4,4.08,37.82,37.82,0,0,1-5.62-.05,20.35,20.35,0,0,1-6.43-1.52,11.26,11.26,0,0,1-3.74-2.66,9.33,9.33,0,0,1-.87-1.08l-.37-.56-.73-1.1c-1-1.48-1.87-3-2.78-4.44-3.48-5.94-6.57-11.94-9.48-18s-5.61-12.17-8.16-18.45Z"/><path class="cls-7" d="M161.43,181.42c-2.43,7.09,11.83,28,11.83,28l13.67-7.57a159.56,159.56,0,0,0-8.21-19C173.9,173.77,164.09,173.63,161.43,181.42Z"/><path class="cls-16" d="M161.43,181.42c-2.43,7.09,11.83,28,11.83,28l13.67-7.57a159.56,159.56,0,0,0-8.21-19C173.9,173.77,164.09,173.63,161.43,181.42Z"/><path class="cls-12" d="M161.22,182.31c3.06-1.47,6.58-.24,10.29,5.62s6.87,15.65,7.21,18.44l-5.46,3S160.09,190.11,161.22,182.31Z"/><path class="cls-15" d="M220.14,225.18l7.29-2.88,1.77,7.46s-8.31,2.48-9.59.08Z"/><polygon class="cls-15" points="233.59 223.8 235.73 227.9 229.2 229.76 227.43 222.3 233.59 223.8"/><path class="cls-7" d="M170.65,176s10.19,23.94,2.85,68.52H131.1c-.52-6.51,2.47-38.26-4.87-68.93a110.34,110.34,0,0,1,14.13-1.79,156.89,156.89,0,0,1,18,0A82.12,82.12,0,0,1,170.65,176Z"/><path class="cls-16" d="M170.65,176s10.19,23.94,2.85,68.52H131.1c-.52-6.51,2.47-38.26-4.87-68.93a110.34,110.34,0,0,1,14.13-1.79,156.89,156.89,0,0,1,18,0A82.12,82.12,0,0,1,170.65,176Z"/><polygon class="cls-6" points="158.56 206.61 149.45 196.87 156.1 187.09 165.2 196.83 158.56 206.61"/><path class="cls-12" d="M135.7,183.16c.88,5-.29,17.12-4.62,31.07a203,203,0,0,0-4.16-35.6v-.06C129.7,178.29,134.86,178.42,135.7,183.16Z"/><path class="cls-15" d="M141.44,153.5c1.34,5.8,2.84,16.42-1.08,20.29,0,0,2.48,5.85,13.25,5.86,8.64,0,4.77-5.86,4.77-5.86-6.52-1.54-6.52-6.34-5.55-10.85Z"/><path class="cls-12" d="M146.08,157.35l6.75,5.59a17.86,17.86,0,0,0-.45,3.2c-2.48-.36-6-3.07-6.32-5.66A8.56,8.56,0,0,1,146.08,157.35Z"/><path class="cls-9" d="M158.35,136.25c3.6,2.33,4.12,13.53-1.15,15.14S151.52,131.84,158.35,136.25Z"/><path class="cls-15" d="M138.9,147.42c2.42,7.51,3.45,12,8.32,15.07a10.25,10.25,0,0,0,15.8-9c-.1-7.2-4-18.27-12.32-19.66A10.38,10.38,0,0,0,138.9,147.42Z"/><path class="cls-9" d="M141.63,139.68c4,5.42,4,14,.88,15s-11.79-9-12.24-14.34c-.36-4.29,2.49-4.29,2.49-4.29s-4.6-2.67.62-5.88c5.89-3.61,20.47-3.27,13.91-8.35,4.75-1.57,6.59,1.46,6.29,3.3,3.5-1.07,3.27-4.87,3.27-4.87s9.3,5.2,5.11,11.26S150.06,139.52,141.63,139.68Z"/><path class="cls-15" d="M137.58,156.57a7.82,7.82,0,0,0,5.37,2.2c2.65,0,3.18-2.49,1.78-4.59-1.25-1.88-4.14-4.14-6.47-3.14S135.83,154.84,137.58,156.57Z"/><path class="cls-9" d="M151.08,147c.16.62.62,1.05,1,1s.61-.66.45-1.28-.62-1.05-1-1S150.93,146.38,151.08,147Z"/><path class="cls-9" d="M158.14,145.46c.16.62.62,1,1,1s.61-.67.45-1.29-.61-1-1-1S158,144.84,158.14,145.46Z"/><path class="cls-17" d="M156,146.26a23.71,23.71,0,0,0,4.34,4.64,3.64,3.64,0,0,1-2.85,1.21Z"/><path class="cls-9" d="M154.77,154.37a5.44,5.44,0,0,1-3.55-1.28.18.18,0,1,1,.25-.27,5.3,5.3,0,0,0,4.54,1,.18.18,0,0,1,.22.14.18.18,0,0,1-.14.22A5.75,5.75,0,0,1,154.77,154.37Z"/><path class="cls-9" d="M148.29,145.22a.4.4,0,0,1-.15,0,.39.39,0,0,1-.2-.5,3.61,3.61,0,0,1,2.61-2.16.38.38,0,0,1,.43.32.37.37,0,0,1-.32.42h0a2.87,2.87,0,0,0-2,1.72A.38.38,0,0,1,148.29,145.22Z"/><path class="cls-9" d="M160.53,142.38a.36.36,0,0,1-.29-.13,3.1,3.1,0,0,0-2.5-1.2.38.38,0,1,1-.07-.75,3.93,3.93,0,0,1,3.15,1.47.38.38,0,0,1,0,.53A.37.37,0,0,1,160.53,142.38Z"/><path class="cls-15" d="M134.6,187,133,190.55c-.55,1.22-1.08,2.44-1.6,3.67-1.05,2.46-2,4.93-3,7.41s-1.79,5-2.5,7.47c-.38,1.25-.69,2.49-1,3.74l-.41,1.86-.06.23,0,.12s0,0,0,0a.11.11,0,0,0,0,0s0,0,0,.1a5.65,5.65,0,0,0,.68,2.08,20.31,20.31,0,0,0,1.8,2.87,58.31,58.31,0,0,0,5,5.87c3.67,3.82,7.72,7.6,11.78,11.17L140.26,242a95.89,95.89,0,0,1-14.48-9.52,58.38,58.38,0,0,1-6.64-6.15,31.06,31.06,0,0,1-3-3.95,15.43,15.43,0,0,1-2.34-5.67,11,11,0,0,1-.18-2,10,10,0,0,1,.06-1.08l0-.41,0-.28.3-2.26c.26-1.48.49-3,.84-4.42a87.87,87.87,0,0,1,2.32-8.54c.89-2.79,1.9-5.53,3-8.22.56-1.33,1.14-2.67,1.74-4s1.22-2.6,2-4Z"/><path class="cls-7" d="M126.23,175.58c-7.47,1.1-15.16,28.57-15.16,28.57l18,6.86s4.54-11.81,7.64-21C140,180.4,134.23,174.41,126.23,175.58Z"/><path class="cls-16" d="M126.23,175.58c-7.47,1.1-15.16,28.57-15.16,28.57l18,6.86s4.54-11.81,7.64-21C140,180.4,134.23,174.41,126.23,175.58Z"/><path class="cls-15" d="M142.36,236.44l7,3.33-4.89,6.68s-6-2.92-4.94-6.47Z"/><polygon class="cls-15" points="153.12 245.02 148.2 249.72 144.45 246.45 149.34 239.77 153.12 245.02"/></g><circle class="cls-7" cx="323.66" cy="249.72" r="70"/><circle class="cls-6" cx="323.66" cy="249.72" r="54.82"/><g class="cls-18"><path class="cls-19" d="M304.33,267.91c-.17,3-.51,5.67-.9,8.48s-.91,5.56-1.5,8.32a92.66,92.66,0,0,1-5,16.35l-.9,2-.22.5-.11.24-.16.32a8.19,8.19,0,0,1-1.16,1.76,6.86,6.86,0,0,1-4.26,2.26,8.66,8.66,0,0,1-3.66-.38,17.8,17.8,0,0,1-4.62-2.39,37.35,37.35,0,0,1-3.51-2.83,80.7,80.7,0,0,1-11.1-12.8l3.45-2.91c1.92,1.81,3.93,3.64,5.94,5.37s4.06,3.41,6.13,4.89a30.87,30.87,0,0,0,3.09,2,10.51,10.51,0,0,0,2.73,1.15c.33.07.54,0,.39,0a1.3,1.3,0,0,0-.76.34c-.07.07-.08.08-.07,0l.31-.82.68-1.78a106.77,106.77,0,0,0,4-15.09c.52-2.58.88-5.19,1.27-7.8s.67-5.3.9-7.77Z"/><path class="cls-9" d="M298.14,257.06c-3.67.93-6.24,16-6.24,16L302,280s9.69-15.23,6.87-19.26C305.94,256.5,303.49,255.7,298.14,257.06Z"/><polygon class="cls-12" points="298.47 260.43 295.65 275.65 301.33 279.5 298.47 260.43"/><path class="cls-19" d="M270.78,286.26l-4.81-7.6-2.73,8.63s3.95,4.14,7.51,3.16Z"/><polygon class="cls-19" points="258.92 276.15 257.03 283.5 263.24 287.3 265.97 278.66 258.92 276.15"/><path class="cls-9" d="M298.14,257.06s-4.24,1.49,4.25,53.72h36.15c-.6-14.71-.62-23.78,6.41-54a106,106,0,0,0-15.35-2,113.78,113.78,0,0,0-16.42,0C306.13,255.42,298.14,257.06,298.14,257.06Z"/><path class="cls-9" d="M306.15,218.53c12.94-20.72,51.27-3.73,31.26,16.66C310.66,262.44,306.15,218.53,306.15,218.53Z"/><path class="cls-9" d="M314.71,247.84a7.1,7.1,0,0,1-3.81-1c-8-5-4-26.07-3.84-27a.38.38,0,0,1,.44-.3.38.38,0,0,1,.29.44c0,.22-4.1,21.49,3.5,26.18,3.68,2.27,9.57.31,17.52-5.82a.38.38,0,0,1,.53.06.39.39,0,0,1-.07.53C323.33,245.53,318.45,247.84,314.71,247.84Z"/><path class="cls-9" d="M330.42,212.67c4-12.09,25.43-8.22,17.89,4.64C340.33,230.93,330.42,212.67,330.42,212.67Z"/><path class="cls-19" d="M328,236.29c-1,5.29-2.07,15,1.63,18.49,0,0-1.45,5.36-11.26,5.36-10.79,0-5.16-5.36-5.16-5.36,5.89-1.41,5.74-5.78,4.72-9.88Z"/><path class="cls-7" d="M317.59,260.13a15.72,15.72,0,0,1,3.56,5.47c1.89-.67,11.64-6,11.83-11a38.43,38.43,0,0,0-3.94-.84A28,28,0,0,1,317.59,260.13Z"/><path class="cls-7" d="M317.59,260.13A22.1,22.1,0,0,0,314,265.6a8.44,8.44,0,0,1-3.5-10.68,16.67,16.67,0,0,1,4.5-.77S310.2,258,317.59,260.13Z"/><path class="cls-12" d="M323.86,239.8l-6,5.09a16.71,16.71,0,0,1,.51,2.92c2.25-.33,5.34-2.8,5.58-5.15A7.93,7.93,0,0,0,323.86,239.8Z"/><path class="cls-19" d="M333.54,226.61c-2.07,8.58-2.76,12.26-7.94,15.94-7.78,5.54-17.87,1.12-18.41-7.92-.48-8.13,3-20.81,12.09-22.76A12.05,12.05,0,0,1,333.54,226.61Z"/><path class="cls-9" d="M319,225.43c-.13.71-.6,1.22-1.06,1.13s-.74-.72-.61-1.42.6-1.22,1.06-1.14S319.07,224.73,319,225.43Z"/><path class="cls-9" d="M311,224c-.13.7-.6,1.21-1.07,1.13s-.73-.72-.61-1.43.61-1.21,1.07-1.13S311.08,223.31,311,224Z"/><path class="cls-9" d="M310.55,222.66l-1.62-.79S309.57,223.35,310.55,222.66Z"/><path class="cls-20" d="M313.85,226.87a19.34,19.34,0,0,1-3.32,4.07,3.12,3.12,0,0,0,2.44.92Z"/><path class="cls-9" d="M316.16,235.19a5.93,5.93,0,0,0,4.14-1.61.22.22,0,0,0,0-.3.21.21,0,0,0-.3,0,5.69,5.69,0,0,1-4.95,1.38.21.21,0,0,0-.25.17.21.21,0,0,0,.17.24A6.53,6.53,0,0,0,316.16,235.19Z"/><path class="cls-9" d="M337.05,229.16c-4.44,7.38-16.31-8-18.28-15.51-2.92,1.44-8.9,5.7-9,2.94s10.09-7.55,15.54-6.7S340.1,224.08,337.05,229.16Z"/><path class="cls-19" d="M334.9,233.47a6.49,6.49,0,0,1-3.49,3.48c-2.1.84-3.4-1-3-3.09.33-1.9,1.84-4.63,4-4.58A2.9,2.9,0,0,1,334.9,233.47Z"/><path class="cls-9" d="M321.7,222.36a.32.32,0,0,0,.19-.05.42.42,0,0,0,.19-.56,4.2,4.2,0,0,0-3.08-2.32.42.42,0,0,0-.46.38.41.41,0,0,0,.37.46h0a3.36,3.36,0,0,1,2.42,1.86A.4.4,0,0,0,321.7,222.36Z"/><path class="cls-9" d="M309.05,221a.48.48,0,0,0,.31-.13,3.33,3.33,0,0,1,2.84-1.09.42.42,0,0,0,.49-.34.41.41,0,0,0-.33-.49,4.17,4.17,0,0,0-3.61,1.33.43.43,0,0,0,0,.6A.42.42,0,0,0,309.05,221Z"/><path class="cls-9" d="M339.08,308.66l.93,3.24c.12.25-.17.5-.59.5H302.21c-.32,0-.59-.16-.61-.36l-.33-3.24c0-.22.26-.41.62-.41h36.6A.66.66,0,0,1,339.08,308.66Z"/><path class="cls-7" d="M334.17,312.75h1c.19,0,.34-.1.33-.22l-.46-4.2c0-.13-.19-.23-.38-.23h-1c-.2,0-.35.1-.33.23l.46,4.2C333.8,312.65,334,312.75,334.17,312.75Z"/><path class="cls-7" d="M305,312.75h1c.19,0,.34-.1.33-.22l-.46-4.2c0-.13-.19-.23-.38-.23h-1c-.2,0-.35.1-.33.23l.46,4.2C304.6,312.65,304.77,312.75,305,312.75Z"/><path class="cls-7" d="M319.57,312.75h1c.19,0,.34-.1.33-.22l-.46-4.2c0-.13-.19-.23-.38-.23h-1c-.2,0-.35.1-.33.23l.46,4.2C319.2,312.65,319.37,312.75,319.57,312.75Z"/><path class="cls-9" d="M318.54,224.08l-1.62-.79S317.56,224.77,318.54,224.08Z"/><path class="cls-19" d="M348.86,266.31A141.11,141.11,0,0,1,354,281.13a95.85,95.85,0,0,1,3.27,15.56l.21,2,.1,2.09,0,.52v.34l0,.56a7.76,7.76,0,0,1-.46,2.06,9,9,0,0,1-1.8,2.85,16.51,16.51,0,0,1-3.93,3,29.91,29.91,0,0,1-3.86,1.83,66.3,66.3,0,0,1-15.41,3.86l-1-4.39a111.65,111.65,0,0,0,13.41-5.92,30.89,30.89,0,0,0,2.85-1.78,8.75,8.75,0,0,0,2-1.8c.18-.25.21-.42.18-.38a.31.31,0,0,0-.08.2.28.28,0,0,0,0,.09v-.14l0-.43-.19-1.71-.28-1.74c-.17-1.15-.44-2.34-.67-3.51s-.52-2.35-.85-3.53c-.59-2.36-1.29-4.72-2-7.08-1.5-4.68-3.15-9.44-4.89-14Z"/><path class="cls-9" d="M345,256.8c3.62,1.1,8,13.57,8,13.57l-14.05,10.05s-5.12-10.41-3.6-15.09C336.85,260.45,340.82,255.54,345,256.8Z"/><path class="cls-19" d="M331.65,311l-9.6-.6,5.4,7.27s5.66-.77,6.95-4.24Z"/><polygon class="cls-19" points="315.88 314.66 320.73 320.51 327.45 317.7 322.05 310.43 315.88 314.66"/></g></g></g></svg>